<svg width="21" height="20" viewBox="0 0 21 20" fill="none" xmlns="http://www.w3.org/2000/svg">
<path d="M12.1667 6.66667H13.8334V8.33333C13.8334 8.79167 14.2084 9.16667 14.6667 9.16667C15.1251 9.16667 15.5001 8.79167 15.5001 8.33333V6.66667H17.1667C17.6251 6.66667 18.0001 6.29167 18.0001 5.83333C18.0001 5.375 17.6251 5 17.1667 5H15.5001V3.33333C15.5001 2.875 15.1251 2.5 14.6667 2.5C14.2084 2.5 13.8334 2.875 13.8334 3.33333V5H12.1667C11.7084 5 11.3334 5.375 11.3334 5.83333C11.3334 6.29167 11.7084 6.66667 12.1667 6.66667ZM16.5084 12.725L14.3917 12.4833C13.8834 12.425 13.3834 12.6 13.0251 12.9583L11.4917 14.4917C9.1334 13.2917 7.20007 11.3667 6.00007 9L7.54173 7.45833C7.90007 7.1 8.07507 6.59167 8.01673 6.09167L7.77507 3.99167C7.6834 3.15 6.96673 2.50833 6.12507 2.50833H4.6834C3.74173 2.50833 2.9584 3.29167 3.01673 4.23333C3.4584 11.35 9.15007 17.0333 16.2584 17.475C17.2001 17.5333 17.9834 16.75 17.9834 15.8083V14.3667C17.9917 13.5333 17.3501 12.8167 16.5084 12.725Z" fill="white"/>
</svg>
