<svg width="23" height="22" viewBox="0 0 23 22" fill="none" xmlns="http://www.w3.org/2000/svg">
<path d="M11.5 1.375C6.18477 1.375 1.875 5.68477 1.875 11C1.875 16.3152 6.18477 20.625 11.5 20.625C16.8152 20.625 21.125 16.3152 21.125 11C21.125 5.68477 16.8152 1.375 11.5 1.375ZM11.5 18.9922C7.08711 18.9922 3.50781 15.4129 3.50781 11C3.50781 6.58711 7.08711 3.00781 11.5 3.00781C15.9129 3.00781 19.4922 6.58711 19.4922 11C19.4922 15.4129 15.9129 18.9922 11.5 18.9922ZM12.5248 10.5016L11.9791 10.3748V7.48945C12.7955 7.60117 13.3004 8.1125 13.3863 8.73984C13.3971 8.82578 13.4701 8.88809 13.5561 8.88809H14.5207C14.6217 8.88809 14.7012 8.8 14.6926 8.69902C14.5615 7.36055 13.4594 6.50117 11.9877 6.35293V5.65039C11.9877 5.55586 11.9104 5.47852 11.8158 5.47852H11.2121C11.1176 5.47852 11.0402 5.55586 11.0402 5.65039V6.35938C9.51914 6.50762 8.32891 7.34766 8.32891 8.91602C8.32891 10.3684 9.39883 11.0688 10.5225 11.3373L11.0531 11.4727V14.5385C10.1035 14.4117 9.5707 13.9047 9.46113 13.2215C9.44824 13.1398 9.3752 13.0797 9.29141 13.0797H8.29883C8.19785 13.0797 8.11836 13.1656 8.12695 13.2666C8.22363 14.4482 9.11953 15.5354 11.0316 15.675V16.3496C11.0316 16.4441 11.109 16.5215 11.2035 16.5215H11.8137C11.9082 16.5215 11.9855 16.4441 11.9855 16.3475L11.9813 15.6664C13.6635 15.5182 14.8666 14.618 14.8666 13.0023C14.8645 11.5113 13.917 10.8453 12.5248 10.5016V10.5016ZM11.051 10.1535C10.9307 10.1191 10.8297 10.0869 10.7287 10.0461C10.0025 9.78398 9.66523 9.36074 9.66523 8.81504C9.66523 8.03516 10.2561 7.59043 11.051 7.48945V10.1535ZM11.9791 14.5449V11.6725C12.0457 11.6918 12.1059 11.7068 12.1682 11.7197C13.1844 12.0291 13.526 12.4588 13.526 13.1184C13.526 13.9584 12.8943 14.4633 11.9791 14.5449Z" fill="#C5D9D0"/>
</svg>
