<svg width="104" height="32" viewBox="0 0 104 32" fill="none" xmlns="http://www.w3.org/2000/svg">
<path d="M71.9658 16.4952C66.561 16.5801 61.5965 16.6233 56.6045 16.7433C44.0601 17.0291 31.4893 17.3402 18.9444 17.6518C14.4697 17.7577 9.99502 17.8636 5.5215 17.9178C4.33178 17.9426 3.11737 17.9153 1.96047 17.6307C0.906352 17.3742 0.0729399 16.5023 0.383386 15.346C0.580572 14.6266 1.1935 13.8132 1.84762 13.466C2.55457 13.0684 3.51058 13.0899 4.3644 13.0575C8.14262 12.8842 11.9208 12.7109 15.7226 12.6415C33.7757 12.2473 51.8536 11.9054 69.9062 11.537C70.5527 11.5257 71.2291 11.3342 71.8774 11.2454C72.9242 9.53696 72.4212 7.76772 72.5618 6.1164C72.6662 4.92959 72.6936 3.71519 72.9782 2.5583C73.2639 1.34973 75.1464 0.409838 76.3016 0.771961C76.7896 0.912225 77.3017 1.13059 77.7087 1.42413C84.1426 6.14495 91.4143 9.25602 98.6301 12.5468C100.012 13.1725 101.363 14.0044 102.583 14.9367C103.879 15.9483 103.806 18.0406 102.492 18.9933C101.519 19.6952 100.422 20.2134 99.3251 20.7057C92.6687 23.5543 86.0881 26.4822 79.8271 30.1411C78.6745 30.8131 77.3204 31.2479 75.9956 31.5282C74.4889 31.8562 73.1416 30.8434 73.4361 29.2473C73.8485 27.0075 72.1271 25.3917 72.3041 23.2759C72.4799 21.2118 72.6557 19.1476 71.9658 16.4952Z" fill="#22B022"/>
</svg>
