<svg width="102" height="112" viewBox="0 0 102 112" fill="none" xmlns="http://www.w3.org/2000/svg">
<path d="M18.8768 9.68639C15.2896 13.2534 12.6434 18.6678 10.763 23.2101C5.62026 35.6328 3.80252 51.8028 8.7878 64.5328C12.0583 72.884 21.2589 79.326 29.8373 73.4349C37.6392 68.077 42.0285 56.2698 42.8309 47.297C43.3334 41.6784 41.4563 34.9902 34.4481 35.8306C31.9482 36.1304 30.0338 37.9569 28.6087 39.8926C24.5608 45.391 23.3863 52.5334 24.0492 59.1996C26.092 79.7397 44.1973 90.3139 62.5105 95.3643C74.2427 98.5998 86.4396 100.178 98.6052 99.3025" stroke="#C5D9D0" stroke-width="1.5" stroke-linecap="round"/>
<path d="M93.9548 96.3513C95.174 97.0075 96.4228 97.6127 97.6581 98.2401C97.9559 98.3914 101.004 99.5815 100.776 100.117C100.524 100.71 98.1039 100.639 97.6131 100.703C94.9672 101.051 92.3756 101.73 89.7886 102.351" stroke="#C5D9D0" stroke-width="1.5" stroke-linecap="round"/>
</svg>
