<svg width="21" height="20" viewBox="0 0 21 20" fill="none" xmlns="http://www.w3.org/2000/svg">
<path d="M17.1667 3.33325H3.83341C2.91675 3.33325 2.17508 4.08325 2.17508 4.99992L2.16675 14.9999C2.16675 15.9166 2.91675 16.6666 3.83341 16.6666H17.1667C18.0834 16.6666 18.8334 15.9166 18.8334 14.9999V4.99992C18.8334 4.08325 18.0834 3.33325 17.1667 3.33325ZM16.3334 14.9999H4.66675C4.20841 14.9999 3.83341 14.6249 3.83341 14.1666V6.66658L9.61675 10.2833C10.1584 10.6249 10.8417 10.6249 11.3834 10.2833L17.1667 6.66658V14.1666C17.1667 14.6249 16.7917 14.9999 16.3334 14.9999ZM10.5001 9.16658L3.83341 4.99992H17.1667L10.5001 9.16658Z" fill="white"/>
</svg>
