<svg width="806" height="524" viewBox="0 0 806 524" fill="none" xmlns="http://www.w3.org/2000/svg">
<path d="M547.799 99.3954C594.381 99.3954 734.092 96.8507 687.544 98.6341C651.83 100.002 616.18 103.117 580.642 106.79C572.777 107.603 564.904 108.333 557.043 109.183C553.475 109.569 549.404 108.765 546.385 110.705C544.278 112.06 551.384 111.122 553.889 111.14C564.636 111.22 575.387 111.14 586.134 111.14C605.704 111.14 625.252 111.235 644.805 112.174C655.408 112.683 666.948 112.47 677.43 114.566C680.362 115.153 671.66 116.334 668.676 116.524C651.306 117.625 633.874 117.817 616.475 117.937C600.839 118.045 585.183 117.724 569.549 118.046C568.572 118.066 565.709 118.398 566.667 118.59C569.632 119.183 577.32 119.84 579.174 120.004C611.39 122.851 644.313 122.417 676.016 128.758" stroke="#22B022" stroke-width="2" stroke-linecap="round"/>
<path d="M40.5319 2C40.5319 4.37459 40.7136 6.74278 40.7136 9.11871C40.7136 10.6535 40.7136 12.1883 40.7136 13.7231" stroke="#FCFCFE" stroke-width="3" stroke-linecap="round"/>
<path d="M11.7239 9.63367C12.1648 10.6151 12.8387 11.4813 13.4909 12.3297C15.772 15.297 18.3185 18.0299 21.165 20.4632C23.8663 22.7724 26.8389 24.71 29.6267 26.9003" stroke="#FCFCFE" stroke-width="3" stroke-linecap="round"/>
<path d="M19.0849 41.8042C13.609 40.0619 7.70844 39.3947 2 38.987" stroke="#FCFCFE" stroke-width="3" stroke-linecap="round"/>
<path d="M733.179 412.341C733.179 409.756 733 407.177 733 404.59C733 402.919 733 401.248 733 399.576" stroke="#FCFCFE" stroke-width="3" stroke-linecap="round"/>
<path d="M761.573 404.029C761.138 402.961 760.474 402.018 759.831 401.094C757.583 397.863 755.073 394.887 752.267 392.237C749.605 389.723 746.675 387.613 743.928 385.228" stroke="#FCFCFE" stroke-width="3" stroke-linecap="round"/>
<path d="M754.318 369C759.715 370.897 765.53 371.624 771.157 372.068" stroke="#FCFCFE" stroke-width="3" stroke-linecap="round"/>
<path d="M55.8768 325.686C52.2896 329.253 49.6434 334.668 47.763 339.21C42.6203 351.633 40.8025 367.803 45.7878 380.533C49.0583 388.884 58.2589 395.326 66.8373 389.435C74.6392 384.077 79.0285 372.27 79.8309 363.297C80.3334 357.678 78.4563 350.99 71.4481 351.831C68.9482 352.13 67.0338 353.957 65.6087 355.893C61.5608 361.391 60.3863 368.533 61.0492 375.2C63.092 395.74 81.1973 406.314 99.5105 411.364C111.243 414.6 123.44 416.178 135.605 415.302" stroke="#C5D9D0" stroke-width="1.5" stroke-linecap="round"/>
<path d="M130.955 412.351C132.174 413.007 133.423 413.613 134.658 414.24C134.956 414.391 138.004 415.582 137.776 416.117C137.524 416.71 135.104 416.639 134.613 416.703C131.967 417.051 129.376 417.73 126.789 418.351" stroke="#C5D9D0" stroke-width="1.5" stroke-linecap="round"/>
<circle cx="798" cy="165" r="8" fill="white"/>
<path d="M688 26C694.407 26 705.136 31.5075 701.319 39.4933C700.962 40.239 701.293 39.458 701.587 39.1067C703.584 36.7192 706.336 34.8765 709.243 33.8292C715.829 31.4565 722.997 32.6792 726.538 39.1357C729.662 44.8304 729.816 50.8712 728.187 57.0268C727.932 57.9902 727.593 58.8803 727.18 59.7815C726.681 60.8739 728.137 57.5663 728.781 56.5532C730.484 53.8703 732.451 51.4517 734.721 49.2363C738.298 45.7462 741.924 42.1633 745.798 39.01C748.094 37.1411 750.698 35.3276 753.559 34.4671C753.738 34.4135 755.376 33.8908 754.92 34.3511" stroke="#FCFCFE" stroke-width="1.5" stroke-linecap="round"/>
<path d="M738 29C734.328 29.2652 731.742 33.4179 730 36" stroke="#FCFCFE" stroke-width="1.5" stroke-linecap="round"/>
<path d="M741 57C741.998 55.6494 744.238 54.8808 745.79 54.2267C747.835 53.3652 749.763 53 752 53" stroke="#FCFCFE" stroke-width="1.5" stroke-linecap="round"/>
<path d="M742 67.0484C747.149 66.9015 752.179 67.0705 757.301 67.8126C762.072 68.5039 766.812 69.4199 771 72" stroke="#FCFCFE" stroke-width="1.5" stroke-linecap="round"/>
<circle cx="9" cy="517" r="6.5" stroke="#C5D9D0"/>
</svg>
