<svg width="22" height="22" viewBox="0 0 22 22" fill="#22B022" xmlns="http://www.w3.org/2000/svg">
<path d="M11 1.83333C16.0545 1.83333 20.1667 5.9455 20.1667 11C20.1667 16.0545 16.0545 20.1667 11 20.1667C5.9455 20.1667 1.83333 16.0545 1.83333 11C1.83333 5.9455 5.9455 1.83333 11 1.83333ZM11 0C4.92525 0 0 4.92525 0 11C0 17.0748 4.92525 22 11 22C17.0748 22 22 17.0748 22 11C22 4.92525 17.0748 0 11 0ZM15.125 15.8684L13.5117 12.7545L12.5657 13.2174C11.539 13.7152 9.449 9.63325 10.4528 9.09517L11.4079 8.62492L9.8065 5.5L8.84125 5.97667C5.54033 7.69725 10.7818 17.8851 14.1579 16.3423L15.125 15.8684Z" fill="white"/>
</svg>
