<svg width="153" height="33" viewBox="0 0 153 33" fill="none" xmlns="http://www.w3.org/2000/svg">
<path d="M2.79923 2.3954C49.3814 2.3954 189.092 -0.14931 142.544 1.63414C106.83 3.00247 71.18 6.11652 35.6419 9.79044C27.7772 10.6035 19.9038 11.3331 12.043 12.183C8.47523 12.5687 4.40411 11.7649 1.38547 13.7055C-0.722075 15.0603 6.38387 14.1218 8.88926 14.1405C19.6358 14.2204 30.3871 14.1405 41.1338 14.1405C60.7043 14.1405 80.2522 14.2351 99.8048 15.1736C110.408 15.6825 121.948 15.4697 132.43 17.5661C135.362 18.1525 126.66 19.3345 123.676 19.5236C106.306 20.6245 88.8738 20.8174 71.4753 20.9374C55.8388 21.0452 40.1832 20.7238 24.5494 21.0461C23.572 21.0663 20.7089 21.3982 21.6675 21.5899C24.6317 22.1827 32.3199 22.8398 34.1738 23.0036C66.3899 25.8515 99.313 25.4174 131.016 31.7581" stroke="#22B022" stroke-width="2" stroke-linecap="round"/>
</svg>
