<svg width="85" height="48" viewBox="0 0 85 48" fill="none" xmlns="http://www.w3.org/2000/svg">
<path d="M1 1C7.40655 1 18.1358 6.50747 14.3189 14.4933C13.9624 15.239 14.2932 14.458 14.5871 14.1067C16.5841 11.7192 19.3362 9.87646 22.2431 8.8292C28.8292 6.45646 35.9968 7.67916 39.5384 14.1357C42.6622 19.8304 42.8158 25.8712 41.1865 32.0268C40.9315 32.9902 40.5928 33.8803 40.1804 34.7815C39.6806 35.8739 41.1372 32.5663 41.7806 31.5532C43.4844 28.8703 45.4513 26.4517 47.7214 24.2363C51.2976 20.7462 54.9244 17.1633 58.7981 14.01C61.0939 12.1411 63.6985 10.3276 66.5594 9.46713C66.7378 9.4135 68.3764 8.89081 67.9201 9.35114" stroke="#FCFCFE" stroke-width="1.5" stroke-linecap="round"/>
<path d="M51 4C47.3283 4.26522 44.7415 8.41787 43 11" stroke="#FCFCFE" stroke-width="1.5" stroke-linecap="round"/>
<path d="M54 32C54.9984 30.6494 57.2379 29.8808 58.7903 29.2267C60.835 28.3652 62.763 28 65 28" stroke="#FCFCFE" stroke-width="1.5" stroke-linecap="round"/>
<path d="M55 42.0484C60.1492 41.9015 65.1786 42.0705 70.3007 42.8126C75.0724 43.5039 79.8119 44.4199 84 47" stroke="#FCFCFE" stroke-width="1.5" stroke-linecap="round"/>
</svg>
