<svg width="234" height="36" viewBox="0 0 234 36" fill="none" xmlns="http://www.w3.org/2000/svg">
<path d="M2.30981 2.78224C22.8929 2.78224 43.4562 2.60646 64.0367 2.28489C118.261 1.43764 172.518 2.31943 226.726 3.80458C228.2 3.84497 229.678 3.8578 231.147 3.99799C232.76 4.15204 232.414 4.51298 231.092 4.77165C221.588 6.6299 211.472 6.6746 201.858 7.47945C162.207 10.7991 122.675 14.5575 82.8808 15.7134C77.6081 15.8665 72.3185 15.9196 67.0484 16.1831C62.3829 16.4164 76.3901 16.369 81.0572 16.5699C96.1983 17.2217 111.321 18.4006 126.371 20.1896C131.504 20.7996 137.305 21.5246 142.452 22.5934C143.929 22.8999 147.568 23.5043 146.514 24.5828C143.506 27.6623 134.785 28.5055 131.013 29.3629C125.926 30.5197 125.269 30.5304 120.68 31.4076C119.797 31.5762 117.433 31.5051 118.082 32.126C119.095 33.0952 120.834 32.6859 122.227 32.8444C125.869 33.2588 130.107 33.5912 133.721 33.7838C139.816 34.1087 145.912 34.1154 152.013 34.1154" stroke="#22B022" stroke-width="3" stroke-linecap="round"/>
</svg>
