<svg width="419" height="286" viewBox="0 0 419 286" fill="none" xmlns="http://www.w3.org/2000/svg">
<path d="M139.479 18.2028L110.491 18.2468C110.161 18.2468 109.895 18.5148 109.895 18.8442L109.905 27.7881H109.913C109.977 28.6735 110.637 29.5895 111.892 30.3135L120.617 35.3508C123.033 36.7455 126.687 36.8975 128.779 35.6895L138.676 29.9762C139.68 29.3948 140.128 28.6055 140.068 27.7881H140.077V18.7988C140.077 18.4695 139.809 18.2015 139.479 18.2028Z" fill="#22B022"/>
<path d="M110.799 27.6442L110.805 27.7241C110.849 28.3401 111.409 29.0028 112.339 29.5402L121.064 34.5775C123.192 35.8042 126.521 35.9628 128.332 34.9162L138.228 29.2015C138.687 28.9375 139.223 28.4882 139.176 27.8535L139.107 26.8935H139.183V19.0975L110.789 19.1402L110.799 27.6442ZM125.225 37.4015C123.471 37.4015 121.635 36.9708 120.169 36.1255L111.445 31.0868C110.308 30.4322 109.536 29.5975 109.201 28.6828H109.02L109.011 27.7895L109.001 18.8455C109 18.4468 109.155 18.0735 109.436 17.7908C109.717 17.5095 110.091 17.3535 110.488 17.3522L139.477 17.3095C139.849 17.2642 140.251 17.4628 140.533 17.7442C140.816 18.0268 140.971 18.4015 140.971 18.7988V28.6828H140.864C140.636 29.4988 140.033 30.2242 139.123 30.7495L129.227 36.4642C128.137 37.0922 126.712 37.4015 125.225 37.4015Z" fill="#B9E2B8"/>
<path d="M139.479 18.2295L126.137 18.2495V36.4775C127.127 36.3828 128.051 36.1375 128.779 35.7161L138.676 30.0015C139.68 29.4228 140.128 28.6322 140.068 27.8162H140.077V18.8255C140.077 18.4961 139.809 18.2295 139.479 18.2295Z" fill="#B9E2B8"/>
<path d="M138.676 20.4348L128.779 26.1482C126.687 27.3562 123.033 27.2042 120.617 25.8095L111.892 20.7735C109.477 19.3775 109.215 17.2682 111.307 16.0615L121.203 10.3468C123.295 9.14018 126.949 9.29085 129.365 10.6855L138.089 15.7228C140.505 17.1175 140.767 19.2268 138.676 20.4348Z" fill="white"/>
<path d="M124.739 10.4282C123.567 10.4282 122.457 10.6562 121.649 11.1215L111.755 16.8348C111.313 17.0895 110.788 17.5162 110.788 18.1082C110.788 18.7308 111.368 19.4375 112.34 19.9988L121.064 25.0362C123.192 26.2628 126.521 26.4202 128.332 25.3748L138.228 19.6602C138.668 19.4068 139.193 18.9789 139.193 18.3869C139.193 17.7642 138.613 17.0575 137.643 16.4975L128.917 11.4588C127.739 10.7788 126.192 10.4282 124.739 10.4282ZM125.225 27.8588C123.471 27.8588 121.635 27.4282 120.169 26.5828L111.445 21.5468C109.892 20.6495 109 19.3962 109 18.1082C109 16.9802 109.66 15.9789 110.86 15.2869L120.756 9.57351C123.131 8.20017 127.108 8.34951 129.812 9.91084L138.537 14.9482C140.091 15.8455 140.981 17.0989 140.981 18.3869C140.981 19.5149 140.321 20.5162 139.121 21.2095H139.123L129.227 26.9215C128.137 27.5508 126.712 27.8588 125.225 27.8588Z" fill="#B9E2B8"/>
<path d="M122.447 35.7708H120.659V26.2735H122.447V35.7708Z" fill="#B9E2B8"/>
<path d="M137.372 28.5281H135.996V23.8655H137.372V28.5281Z" fill="#22B022"/>
<path d="M148.551 12.7682H147.277V6.29485H148.551V12.7682Z" fill="white"/>
<path d="M151.151 10.1682H144.677V8.89481H151.151V10.1682Z" fill="white"/>
<path d="M44.6548 164.296L15.6668 164.34C15.3375 164.341 15.0708 164.608 15.0708 164.937L15.0815 173.883H15.0895C15.1535 174.767 15.8135 175.683 17.0681 176.408L25.7935 181.445C28.2095 182.84 31.8628 182.991 33.9548 181.783L43.8521 176.069C44.8561 175.489 45.3041 174.7 45.2441 173.883H45.2535V164.893C45.2535 164.563 44.9855 164.296 44.6548 164.296Z" fill="#22B022"/>
<path d="M15.9746 173.739L15.9813 173.817C16.0253 174.435 16.5853 175.096 17.5146 175.633L26.2399 180.672C28.3679 181.897 31.6973 182.056 33.5079 181.009L43.4039 175.296C43.8626 175.031 44.3986 174.583 44.3519 173.948L44.2826 172.988H44.3586V165.192L15.9652 165.235L15.9746 173.739ZM30.4012 183.495C28.6466 183.495 26.8106 183.064 25.3466 182.219L16.6213 177.181C15.4839 176.525 14.7119 175.692 14.3773 174.777H14.1959L14.1866 173.884L14.1773 164.939C14.1759 164.541 14.3306 164.167 14.6119 163.884C14.8933 163.603 15.2666 163.447 15.6639 163.447L44.6533 163.403C45.0253 163.357 45.4266 163.556 45.7093 163.839C45.9919 164.12 46.1466 164.495 46.1466 164.893V174.777H46.0399C45.8119 175.592 45.2092 176.317 44.2986 176.843L34.4026 182.557C33.3132 183.187 31.8879 183.495 30.4012 183.495Z" fill="#B9E2B8"/>
<path d="M44.6548 164.323L31.3135 164.344V182.572C32.3028 182.476 33.2268 182.231 33.9548 181.809L43.8521 176.096C44.8561 175.516 45.3041 174.727 45.2441 173.909H45.2535V164.92C45.2535 164.589 44.9855 164.323 44.6548 164.323Z" fill="#B9E2B8"/>
<path d="M43.8519 166.528L33.9546 172.243C31.8626 173.449 28.2092 173.299 25.7932 171.904L17.0679 166.867C14.6532 165.472 14.3906 163.363 16.4826 162.155L26.3786 156.441C28.4706 155.233 32.1252 155.384 34.5412 156.779L43.2652 161.816C45.6812 163.211 45.9426 165.32 43.8519 166.528Z" fill="white"/>
<path d="M29.9134 156.521C28.7427 156.521 27.6333 156.749 26.8253 157.216L16.9307 162.929C16.4893 163.183 15.964 163.611 15.964 164.201C15.964 164.825 16.544 165.531 17.516 166.092L26.24 171.129C28.368 172.356 31.6974 172.513 33.508 171.468L43.404 165.753C43.844 165.5 44.3694 165.072 44.3694 164.481C44.3694 163.859 43.7894 163.152 42.8187 162.591L34.0933 157.553C32.9147 156.873 31.368 156.521 29.9134 156.521ZM30.4014 173.953C28.6467 173.953 26.8107 173.523 25.3467 172.677L16.6214 167.641C15.068 166.744 14.176 165.491 14.176 164.201C14.176 163.075 14.836 162.073 16.036 161.38L25.932 155.667C28.3067 154.295 32.284 154.444 34.988 156.004L43.7134 161.041C45.2667 161.939 46.1573 163.192 46.1573 164.481C46.1573 165.608 45.4973 166.611 44.2973 167.303H44.2987L34.4027 173.016C33.3134 173.644 31.888 173.953 30.4014 173.953Z" fill="#B9E2B8"/>
<path d="M27.6227 181.864H25.8347V172.367H27.6227V181.864Z" fill="#B9E2B8"/>
<path d="M42.5481 174.623H41.1721V169.96H42.5481V174.623Z" fill="#22B022"/>
<path d="M2.67868 158.488C1.90401 158.488 1.27334 159.117 1.27334 159.892C1.27334 160.668 1.90401 161.297 2.67868 161.297C3.45201 161.297 4.08268 160.668 4.08268 159.892C4.08268 159.117 3.45201 158.488 2.67868 158.488ZM2.67868 162.571C1.20134 162.571 0 161.369 0 159.892C0 158.416 1.20134 157.213 2.67868 157.213C4.15468 157.213 5.35602 158.416 5.35602 159.892C5.35602 161.369 4.15468 162.571 2.67868 162.571Z" fill="white"/>
<path d="M10.7385 157.032H9.46387V150.56H10.7385V157.032Z" fill="white"/>
<path d="M13.3374 154.433H6.86401V153.16H13.3374V154.433Z" fill="white"/>
<path d="M404.457 100.243L375.468 100.287C375.139 100.288 374.872 100.555 374.872 100.884L374.883 109.829H374.892C374.956 110.713 375.616 111.629 376.871 112.355L385.595 117.391C388.011 118.785 391.665 118.937 393.757 117.729L403.653 112.016C404.659 111.436 405.105 110.647 405.047 109.829H405.055V100.84C405.055 100.509 404.787 100.243 404.457 100.243Z" fill="#22B022"/>
<path d="M375.777 109.686L375.784 109.764C375.828 110.382 376.387 111.043 377.317 111.58L386.043 116.618C388.171 117.844 391.499 118.003 393.311 116.956L403.205 111.242C403.664 110.978 404.2 110.528 404.155 109.895L404.084 108.934H404.161V101.138L375.768 101.182L375.777 109.686ZM390.204 119.442C388.449 119.442 386.612 119.011 385.148 118.166L376.423 113.128C375.285 112.472 374.513 111.639 374.18 110.723H373.999L373.989 109.83L373.979 100.886C373.979 100.488 374.132 100.114 374.415 99.8309C374.695 99.5495 375.069 99.3935 375.467 99.3935L404.456 99.3495H404.455C404.827 99.3042 405.229 99.5029 405.512 99.7842C405.793 100.067 405.949 100.442 405.949 100.84V110.723H405.843C405.613 111.539 405.011 112.264 404.1 112.79L394.204 118.504C393.115 119.132 391.689 119.442 390.204 119.442Z" fill="#B9E2B8"/>
<path d="M404.457 100.269L391.115 100.291V118.519C392.104 118.423 393.028 118.177 393.757 117.756L403.653 112.043C404.659 111.463 405.105 110.673 405.047 109.856H405.055V100.867C405.055 100.536 404.787 100.269 404.457 100.269Z" fill="#B9E2B8"/>
<path d="M403.654 102.475L393.756 108.188C391.666 109.396 388.011 109.245 385.595 107.851L376.871 102.813C374.455 101.419 374.194 99.3095 376.284 98.1015L386.181 92.3868C388.273 91.1801 391.927 91.3308 394.343 92.7255L403.068 97.7628C405.483 99.1575 405.746 101.267 403.654 102.475Z" fill="white"/>
<path d="M389.716 92.4681C388.545 92.4681 387.436 92.6962 386.628 93.1615L376.732 98.8762C376.292 99.1295 375.767 99.5575 375.767 100.148C375.767 100.771 376.347 101.477 377.317 102.039L386.043 107.076C388.171 108.303 391.499 108.46 393.311 107.415L403.207 101.7C403.647 101.447 404.172 101.019 404.172 100.428C404.172 99.8055 403.591 99.0988 402.62 98.5375L393.896 93.5001C392.717 92.8188 391.169 92.4681 389.716 92.4681ZM390.204 109.9C388.449 109.9 386.612 109.468 385.148 108.624L376.423 103.588C374.869 102.691 373.979 101.437 373.979 100.148C373.979 99.0215 374.639 98.0202 375.837 97.3268L385.733 91.6135C388.109 90.2415 392.085 90.3895 394.789 91.9508L403.515 96.9882C405.068 97.8855 405.96 99.1388 405.96 100.428C405.96 101.555 405.3 102.556 404.1 103.249L394.204 108.963C393.115 109.591 391.689 109.9 390.204 109.9Z" fill="#B9E2B8"/>
<path d="M387.424 117.811H385.636V108.313H387.424V117.811Z" fill="#B9E2B8"/>
<path d="M402.349 110.569H400.973V105.907H402.349V110.569Z" fill="#22B022"/>
<path d="M416.161 106.151C415.387 106.151 414.757 106.78 414.757 107.555C414.757 108.33 415.387 108.96 416.161 108.96C416.937 108.96 417.567 108.33 417.567 107.555C417.567 106.78 416.937 106.151 416.161 106.151ZM416.161 110.234C414.685 110.234 413.483 109.032 413.483 107.555C413.483 106.079 414.685 104.876 416.161 104.876C417.639 104.876 418.84 106.079 418.84 107.555C418.84 109.032 417.639 110.234 416.161 110.234Z" fill="white"/>
<path d="M306.195 261.997L277.207 262.042C276.877 262.043 276.611 262.309 276.611 262.639L276.621 271.584H276.629C276.693 272.468 277.353 273.384 278.608 274.108L287.333 279.145C289.749 280.54 293.403 280.692 295.495 279.484L305.392 273.771C306.396 273.191 306.844 272.4 306.784 271.584H306.793V262.595C306.793 262.264 306.525 261.997 306.195 261.997Z" fill="#22B022"/>
<path d="M277.515 271.44L277.521 271.519C277.565 272.135 278.125 272.797 279.055 273.335L287.78 278.372C289.908 279.599 293.237 279.757 295.048 278.711L304.944 272.996C305.403 272.732 305.939 272.283 305.892 271.649L305.823 270.688H305.899V262.892L277.505 262.936L277.515 271.44ZM291.941 281.196C290.187 281.196 288.351 280.766 286.887 279.92L278.161 274.883C277.024 274.227 276.252 273.392 275.917 272.478H275.736L275.727 271.584L275.717 262.64C275.716 262.243 275.871 261.868 276.152 261.585C276.433 261.304 276.807 261.148 277.204 261.148L306.193 261.104C306.565 261.059 306.967 261.257 307.249 261.539C307.532 261.821 307.687 262.196 307.687 262.595V272.478H307.58C307.352 273.293 306.749 274.019 305.839 274.544L295.943 280.259C294.853 280.887 293.428 281.196 291.941 281.196Z" fill="#B9E2B8"/>
<path d="M306.195 262.024L292.853 262.044V280.273C293.843 280.178 294.767 279.932 295.495 279.511L305.392 273.797C306.396 273.218 306.844 272.428 306.784 271.611H306.793V262.621C306.793 262.291 306.525 262.024 306.195 262.024Z" fill="#B9E2B8"/>
<path d="M305.392 264.23L295.495 269.943C293.403 271.151 289.749 271 287.333 269.606L278.608 264.568C276.193 263.173 275.931 261.064 278.023 259.856L287.919 254.142C290.011 252.935 293.665 253.085 296.081 254.48L304.805 259.518C307.221 260.912 307.483 263.021 305.392 264.23Z" fill="white"/>
<path d="M291.453 254.223C290.283 254.223 289.173 254.451 288.365 254.916L278.469 260.631C278.029 260.884 277.504 261.311 277.504 261.903C277.504 262.525 278.084 263.232 279.056 263.793L287.78 268.831C289.908 270.057 293.237 270.215 295.048 269.169L304.944 263.455C305.384 263.201 305.909 262.773 305.909 262.183C305.909 261.559 305.329 260.852 304.359 260.292L295.633 255.255C294.455 254.573 292.908 254.223 291.453 254.223ZM291.941 271.655C290.187 271.655 288.351 271.223 286.887 270.379L278.161 265.342C276.608 264.444 275.716 263.191 275.716 261.903C275.716 260.775 276.376 259.773 277.576 259.081L287.472 253.368C289.847 251.995 293.824 252.144 296.528 253.706L305.253 258.743C306.807 259.64 307.697 260.893 307.697 262.183C307.697 263.309 307.037 264.311 305.837 265.004H305.839L295.943 270.716C294.853 271.345 293.428 271.655 291.941 271.655Z" fill="#B9E2B8"/>
<path d="M289.163 279.566H287.375V270.068H289.163V279.566Z" fill="#B9E2B8"/>
<path d="M304.088 272.323H302.712V267.66H304.088V272.323Z" fill="#22B022"/>
<path d="M303.219 238.154C302.444 238.154 301.815 238.783 301.815 239.559C301.815 240.333 302.444 240.963 303.219 240.963C303.995 240.963 304.624 240.333 304.624 239.559C304.624 238.783 303.995 238.154 303.219 238.154ZM303.219 242.236C301.743 242.236 300.54 241.035 300.54 239.559C300.54 238.081 301.743 236.88 303.219 236.88C304.696 236.88 305.897 238.081 305.897 239.559C305.897 241.035 304.696 242.236 303.219 242.236Z" fill="white"/>
<path d="M297.259 247.108H295.985V240.636H297.259V247.108Z" fill="white"/>
<path d="M299.857 244.509H293.385V243.236H299.857V244.509Z" fill="white"/>
<path d="M357.051 169.996C355.699 172.019 353.575 173.959 350.66 175.641L168.976 280.5C159.148 286.173 144.28 286.787 135.769 281.872L56.2147 235.925C52.6174 233.848 50.7521 231.113 50.5147 228.221L50.5014 228.215C49.608 223.449 50.9801 217.972 50.9801 217.972L56.2734 218.269L56.2787 218.288C56.9961 217.76 57.7547 217.243 58.6014 216.753L240.284 111.895C250.113 106.222 264.981 105.608 273.492 110.523L353.047 156.469L359.096 156.153C359.096 156.153 361.405 162.7 357.425 169.427C357.403 169.465 357.381 169.492 357.359 169.528C357.273 169.671 357.176 169.811 357.083 169.952C357.072 169.967 357.061 169.981 357.051 169.996Z" fill="#B9E2B8"/>
<path d="M51.2481 227.68L51.2895 227.703L51.3401 228.155C51.5655 230.901 53.3935 233.34 56.6295 235.209L136.183 281.155C144.452 285.93 158.98 285.313 168.563 279.783L350.245 174.924C352.961 173.355 355.021 171.543 356.363 169.535L356.48 169.361C356.54 169.275 356.599 169.188 356.652 169.1C359.761 163.852 358.897 158.715 358.479 157.013L352.845 157.308L352.632 157.185L273.079 111.24C264.807 106.463 250.283 107.081 240.699 112.611L59.0148 217.469C58.2921 217.888 57.5788 218.36 56.7695 218.955L55.8241 219.651L55.6468 219.063L51.6375 218.837C51.3308 220.352 50.6921 224.196 51.2481 227.68ZM150.192 286C144.631 286 139.317 284.879 135.355 282.588L55.8001 236.643C52.1308 234.523 50.0255 231.69 49.7028 228.44L49.6881 228.368C48.7721 223.48 50.1188 218.001 50.1761 217.771L50.3428 217.107L56.0535 217.427C56.8068 216.884 57.4908 216.437 58.1868 216.036L239.871 111.177C249.911 105.383 265.179 104.765 273.907 109.805L353.248 155.629L359.669 155.293L359.876 155.877C359.976 156.159 362.268 162.869 358.139 169.848L358.068 169.959C358.001 170.067 357.929 170.176 357.856 170.285L357.739 170.456C356.255 172.676 354.012 174.661 351.073 176.359L169.392 281.216C163.911 284.38 156.872 286 150.192 286Z" fill="#B9E2B8"/>
<path d="M152.255 284.723L152.184 277.825L153.075 277.815L153.145 284.713L152.255 284.723Z" fill="#22B022"/>
<path d="M54.7147 235.232C53.4787 231.195 54.636 227.452 54.6853 227.296L55.536 227.564C55.4893 227.711 54.412 231.196 55.5667 234.971L54.7147 235.232Z" fill="#22B022"/>
<path d="M57.892 237.085C56.6547 233.048 57.8134 229.307 57.8627 229.149L58.712 229.418C58.6667 229.566 57.588 233.051 58.744 236.824L57.892 237.085Z" fill="#22B022"/>
<path d="M351.308 175.296L350.439 175.095C350.984 172.729 350.884 169.992 350.776 168.569L351.215 168.448L351.66 168.424C351.777 169.973 351.88 172.816 351.308 175.296Z" fill="#22B022"/>
<path d="M354.833 173.084L353.965 172.883C354.365 171.149 354.473 168.908 354.272 166.573L354.263 166.449L355.153 166.407C355.371 168.921 355.255 171.261 354.833 173.084Z" fill="#22B022"/>
<path d="M289.324 207.639C289.007 207.456 288.832 207.112 288.832 206.672V206.485C288.832 205.66 289.465 204.651 290.273 204.184L298.076 199.68C298.56 199.403 299.04 199.361 299.397 199.565C299.715 199.749 300.893 200.269 300.893 200.711L299.889 200.72C299.889 201.544 299.256 202.555 298.448 203.021L290.644 207.525C290.365 207.687 290.668 208.297 290.413 208.297C290.228 208.297 289.475 207.725 289.324 207.639Z" fill="#22B022"/>
<path d="M298.891 199.883C298.713 199.883 298.507 199.945 298.296 200.067L290.496 204.569C289.824 204.957 289.277 205.817 289.277 206.485V206.672C289.277 206.867 289.324 207.124 289.547 207.252L289.549 207.253C289.595 207.279 289.688 207.344 289.803 207.424C289.868 207.469 289.977 207.545 290.092 207.621C290.127 207.443 290.213 207.257 290.421 207.139L298.225 202.635C298.896 202.247 299.444 201.388 299.444 200.72V200.279L299.779 200.275C299.671 200.216 299.551 200.151 299.417 200.083C299.316 200.031 299.233 199.985 299.175 199.952C299.095 199.907 298.999 199.883 298.891 199.883ZM290.413 208.743C290.177 208.743 289.928 208.596 289.295 208.156C289.207 208.095 289.135 208.044 289.099 208.024C288.647 207.761 288.387 207.269 288.387 206.672V206.485C288.387 205.501 289.101 204.345 290.051 203.799L297.852 199.293C298.479 198.932 299.12 198.895 299.62 199.179L299.828 199.289C300.624 199.703 301.339 200.123 301.339 200.711V201.152L300.289 201.163C300.12 202.031 299.481 202.94 298.671 203.407L290.961 207.857C290.961 207.892 290.964 207.933 290.965 207.963C290.975 208.143 290.988 208.388 290.808 208.576L290.676 208.715L290.413 208.743Z" fill="#22B022"/>
<path d="M276.089 215.319C275.771 215.135 275.596 214.792 275.596 214.351V214.164C275.596 213.34 276.229 212.329 277.037 211.863L284.84 207.359C285.323 207.081 285.803 207.041 286.161 207.245C286.479 207.429 287.667 207.985 287.667 208.425L286.653 208.4C286.653 209.224 286.02 210.235 285.212 210.701L277.408 215.203C277.129 215.365 277.623 216.056 277.368 216.056C277.183 216.056 276.239 215.405 276.089 215.319Z" fill="#22B022"/>
<path d="M285.653 207.561C285.476 207.561 285.273 207.624 285.061 207.745L277.26 212.248C276.589 212.637 276.041 213.497 276.041 214.165V214.351C276.041 214.545 276.089 214.804 276.311 214.931L276.315 214.932C276.351 214.955 276.431 215.007 276.537 215.076C276.609 215.123 276.741 215.207 276.881 215.297C276.9 215.116 276.979 214.937 277.187 214.817L284.989 210.315C285.66 209.927 286.207 209.068 286.207 208.4V207.943L286.519 207.951C286.407 207.887 286.283 207.817 286.144 207.744L285.939 207.631C285.856 207.585 285.76 207.561 285.653 207.561ZM277.368 216.501C277.147 216.501 276.888 216.368 276.051 215.821L275.864 215.704C275.411 215.441 275.151 214.948 275.151 214.351V214.165C275.151 213.181 275.865 212.025 276.813 211.476L284.617 206.973C285.243 206.613 285.885 206.573 286.383 206.859L286.564 206.959C287.381 207.393 288.112 207.832 288.112 208.427V208.884L287.051 208.856C286.876 209.72 286.239 210.621 285.435 211.085L277.788 215.5C277.799 215.535 277.808 215.572 277.817 215.599C277.879 215.808 277.956 216.068 277.784 216.297L277.652 216.476L277.368 216.501Z" fill="#22B022"/>
<path d="M290.413 208.297C290.096 208.113 289.921 207.771 289.921 207.331V207.143C289.921 206.319 290.555 205.308 291.363 204.841L299.165 200.337C299.649 200.06 300.129 200.02 300.487 200.224C300.804 200.408 300.979 200.751 300.979 201.191V201.379C300.979 202.203 300.345 203.213 299.537 203.679L291.735 208.184C291.455 208.344 291.176 208.425 290.92 208.425C290.736 208.425 290.564 208.383 290.413 208.297Z" fill="#B9E2B8"/>
<path d="M290.636 207.911C290.849 208.035 291.177 207.991 291.512 207.796L299.315 203.293C299.985 202.905 300.533 202.047 300.533 201.379V201.191C300.533 200.996 300.485 200.737 300.264 200.609C300.053 200.491 299.723 200.532 299.387 200.724L291.585 205.228C290.915 205.616 290.367 206.476 290.367 207.144V207.331C290.367 207.524 290.415 207.781 290.636 207.911ZM290.92 208.872C290.653 208.872 290.407 208.808 290.191 208.683H290.189C289.736 208.42 289.476 207.927 289.476 207.331V207.144C289.476 206.16 290.192 205.004 291.14 204.456L298.943 199.952C299.565 199.592 300.208 199.549 300.708 199.837C301.164 200.1 301.424 200.592 301.424 201.191V201.379C301.424 202.363 300.709 203.517 299.76 204.064L291.957 208.569C291.613 208.767 291.255 208.872 290.92 208.872Z" fill="#22B022"/>
<path d="M277.179 215.976C276.86 215.793 276.685 215.451 276.685 215.009V214.823C276.685 213.999 277.319 212.988 278.127 212.52L285.929 208.017C286.413 207.739 286.893 207.699 287.251 207.904C287.568 208.087 287.743 208.431 287.743 208.871V209.057C287.743 209.881 287.109 210.892 286.301 211.359L278.499 215.861C278.219 216.023 277.939 216.105 277.684 216.105C277.499 216.105 277.328 216.063 277.179 215.976Z" fill="#B9E2B8"/>
<path d="M286.743 208.22C286.568 208.22 286.364 208.281 286.151 208.404L278.349 212.905C277.679 213.295 277.132 214.155 277.132 214.823V215.008C277.132 215.204 277.179 215.463 277.4 215.589L277.404 215.591C277.609 215.713 277.94 215.669 278.276 215.476L286.079 210.973C286.749 210.585 287.296 209.727 287.296 209.059V208.871C287.296 208.676 287.249 208.419 287.027 208.289C286.945 208.243 286.849 208.22 286.743 208.22ZM277.684 216.551C277.416 216.551 277.171 216.488 276.956 216.361C276.502 216.1 276.241 215.607 276.241 215.008V214.823C276.241 213.839 276.955 212.683 277.903 212.135L285.707 207.631C286.331 207.272 286.975 207.232 287.472 207.516C287.927 207.781 288.187 208.275 288.187 208.871V209.059C288.187 210.043 287.473 211.197 286.524 211.745L278.721 216.247C278.379 216.447 278.019 216.551 277.684 216.551Z" fill="#22B022"/>
<path d="M306.901 197.957C307.113 198.08 307.447 198.037 307.779 197.844L312.167 195.312C312.838 194.924 313.384 194.065 313.384 193.397V193.211C313.384 193.016 313.337 192.757 313.115 192.628C312.905 192.507 312.575 192.549 312.24 192.744L307.851 195.275C307.179 195.663 306.634 196.521 306.634 197.189V197.377C306.634 197.571 306.68 197.828 306.901 197.957ZM307.187 198.917C306.92 198.917 306.675 198.856 306.457 198.731L306.455 198.729C306.001 198.467 305.741 197.973 305.741 197.377V197.189C305.741 196.204 306.458 195.051 307.406 194.503L311.795 191.971C312.416 191.612 313.06 191.568 313.562 191.856C314.015 192.12 314.275 192.613 314.275 193.211V193.397C314.275 194.381 313.561 195.536 312.612 196.084L308.223 198.617C307.879 198.815 307.521 198.917 307.187 198.917Z" fill="#22B022"/>
<path d="M310.347 195.247V194.948C310.348 193.843 309.452 193.464 308.345 194.103L306.792 194.999C305.687 195.637 304.791 197.049 304.791 198.155V198.453C304.791 199.559 305.687 199.937 306.792 199.3L308.345 198.403C309.451 197.765 310.347 196.352 310.347 195.247Z" fill="#22B022"/>
<path d="M150.315 284.954L149.424 284.942L149.516 277.816L150.407 277.828L150.315 284.954Z" fill="#22B022"/>
<path d="M137.283 281.691L136.392 281.678L136.483 274.554L137.373 274.566L137.283 281.691Z" fill="#22B022"/>
<path d="M163.304 282.821L163.232 275.923L164.123 275.913L164.195 282.811L163.304 282.821Z" fill="#22B022"/>
<path d="M178.436 274.084L178.365 267.184L179.256 267.175L179.327 274.075L178.436 274.084Z" fill="#22B022"/>
<path d="M109.867 262.703C109.835 262.703 109.807 262.708 109.785 262.721C109.719 262.761 109.676 262.883 109.676 263.04C109.676 263.515 110.024 264.118 110.436 264.355C110.572 264.433 110.699 264.459 110.767 264.419C110.835 264.38 110.877 264.259 110.877 264.1C110.877 263.625 110.529 263.023 110.117 262.785C110.024 262.731 109.935 262.703 109.867 262.703ZM110.689 265.075C110.505 265.075 110.309 265.018 110.117 264.906C109.513 264.559 109.039 263.737 109.039 263.04C109.039 262.644 109.195 262.327 109.467 262.169C109.739 262.011 110.092 262.036 110.436 262.233C111.041 262.583 111.513 263.403 111.513 264.1C111.513 264.497 111.357 264.815 111.084 264.972C110.965 265.04 110.831 265.075 110.689 265.075Z" fill="#22B022"/>
<path d="M114.105 265.151C114.073 265.151 114.047 265.156 114.025 265.168C113.959 265.208 113.916 265.33 113.916 265.488C113.916 265.963 114.263 266.566 114.675 266.801C114.811 266.881 114.939 266.907 115.005 266.867C115.073 266.828 115.115 266.706 115.115 266.548C115.115 266.072 114.768 265.471 114.356 265.232C114.263 265.178 114.173 265.151 114.105 265.151ZM114.928 267.521C114.744 267.521 114.549 267.464 114.356 267.354C113.752 267.006 113.279 266.185 113.279 265.488C113.279 265.092 113.435 264.773 113.707 264.618C113.98 264.461 114.331 264.483 114.675 264.68C115.28 265.03 115.752 265.849 115.752 266.548C115.752 266.944 115.596 267.261 115.324 267.419C115.205 267.487 115.071 267.521 114.928 267.521Z" fill="#22B022"/>
<path d="M118.344 267.597C118.312 267.597 118.285 267.604 118.264 267.616C118.197 267.655 118.155 267.778 118.155 267.935C118.155 268.409 118.503 269.012 118.913 269.251C119.051 269.328 119.177 269.356 119.244 269.315C119.312 269.275 119.355 269.152 119.355 268.995C119.355 268.52 119.007 267.919 118.595 267.681C118.501 267.627 118.412 267.597 118.344 267.597ZM119.165 269.969C118.983 269.969 118.788 269.913 118.595 269.803C117.991 269.451 117.517 268.632 117.517 267.935C117.517 267.537 117.675 267.22 117.947 267.064C118.22 266.908 118.573 266.931 118.913 267.13C119.517 267.478 119.992 268.297 119.992 268.995C119.992 269.391 119.836 269.708 119.564 269.866C119.444 269.933 119.309 269.969 119.165 269.969Z" fill="#22B022"/>
<path d="M122.581 270.044C122.551 270.044 122.524 270.051 122.503 270.063C122.435 270.101 122.393 270.224 122.393 270.381C122.393 270.857 122.741 271.459 123.153 271.697C123.289 271.776 123.416 271.801 123.484 271.761C123.551 271.721 123.593 271.6 123.593 271.443C123.593 270.967 123.247 270.364 122.835 270.128C122.741 270.073 122.652 270.044 122.581 270.044ZM123.405 272.416C123.223 272.416 123.027 272.36 122.835 272.249C122.229 271.899 121.756 271.079 121.756 270.381C121.756 269.987 121.912 269.668 122.185 269.511C122.456 269.356 122.811 269.379 123.153 269.576C123.757 269.924 124.231 270.744 124.231 271.443C124.231 271.839 124.075 272.156 123.803 272.312C123.683 272.381 123.548 272.416 123.405 272.416Z" fill="#22B022"/>
<path d="M126.821 272.492C126.791 272.492 126.763 272.497 126.741 272.511C126.675 272.549 126.632 272.671 126.632 272.83C126.632 273.305 126.98 273.907 127.392 274.144C127.527 274.223 127.653 274.247 127.723 274.208C127.789 274.169 127.832 274.048 127.832 273.89C127.832 273.413 127.485 272.812 127.073 272.575C126.98 272.52 126.889 272.492 126.821 272.492ZM127.644 274.863C127.463 274.863 127.265 274.807 127.073 274.696C126.468 274.348 125.996 273.528 125.996 272.83C125.996 272.433 126.151 272.116 126.424 271.959C126.691 271.801 127.047 271.824 127.392 272.023C127.996 272.371 128.469 273.191 128.469 273.89C128.469 274.285 128.313 274.603 128.041 274.76C127.923 274.83 127.787 274.863 127.644 274.863Z" fill="#22B022"/>
<path d="M65.1161 236.909C65.0841 236.909 65.0561 236.915 65.0347 236.927C64.9667 236.967 64.9254 237.09 64.9254 237.247C64.9254 237.721 65.2734 238.324 65.6841 238.561C65.8201 238.642 65.9481 238.667 66.0147 238.627C66.0827 238.587 66.1254 238.464 66.1254 238.307C66.1254 237.832 65.7774 237.23 65.3654 236.992C65.2734 236.937 65.1841 236.909 65.1161 236.909ZM65.9361 239.281C65.7547 239.281 65.5587 239.225 65.3654 239.115C64.7614 238.764 64.2881 237.944 64.2881 237.247C64.2881 236.851 64.4441 236.533 64.7161 236.376C64.9881 236.219 65.3401 236.242 65.6841 236.439C66.2881 236.791 66.7614 237.609 66.7614 238.307C66.7614 238.703 66.6054 239.021 66.3334 239.178C66.2147 239.245 66.0801 239.281 65.9361 239.281Z" fill="#22B022"/>
<path d="M69.3533 239.356C69.3226 239.356 69.2946 239.363 69.2746 239.375C69.2066 239.413 69.1639 239.536 69.1639 239.693C69.1639 240.169 69.5119 240.771 69.9239 241.009C70.0586 241.09 70.1866 241.113 70.2533 241.073C70.3213 241.033 70.3639 240.912 70.3639 240.754C70.3639 240.279 70.016 239.676 69.604 239.44C69.5106 239.385 69.4213 239.356 69.3533 239.356ZM70.176 241.728C69.992 241.728 69.7973 241.672 69.604 241.561C69 241.211 68.5266 240.391 68.5266 239.693C68.5266 239.297 68.6826 238.98 68.956 238.823C69.2293 238.667 69.5826 238.691 69.9239 238.888C70.5279 239.236 71.0013 240.056 71.0013 240.754C71.0013 241.149 70.8453 241.467 70.5733 241.624C70.4533 241.693 70.3186 241.728 70.176 241.728Z" fill="#22B022"/>
<path d="M73.592 241.804C73.56 241.804 73.5334 241.809 73.5121 241.823C73.4441 241.861 73.4027 241.984 73.4027 242.142C73.4027 242.618 73.7507 243.22 74.1627 243.456C74.2987 243.536 74.424 243.56 74.4934 243.52C74.5614 243.48 74.6027 243.359 74.6027 243.201C74.6027 242.727 74.2547 242.124 73.8441 241.887C73.7494 241.832 73.66 241.804 73.592 241.804ZM74.4147 244.175C74.2321 244.175 74.0361 244.119 73.8441 244.008C73.2387 243.66 72.7654 242.84 72.7654 242.142C72.7654 241.745 72.9214 241.428 73.1934 241.271C73.4654 241.112 73.8187 241.137 74.1627 241.335C74.7667 241.683 75.2401 242.504 75.2401 243.201C75.2401 243.597 75.0841 243.915 74.8121 244.072C74.6921 244.142 74.5574 244.175 74.4147 244.175Z" fill="#22B022"/>
<path d="M77.8306 244.252C77.7999 244.252 77.7733 244.257 77.7506 244.269C77.6839 244.309 77.6412 244.431 77.6412 244.588C77.6412 245.064 77.9892 245.667 78.4012 245.903C78.5372 245.983 78.6652 246.007 78.7319 245.968C78.7986 245.93 78.8412 245.807 78.8412 245.649C78.8412 245.173 78.4932 244.572 78.0812 244.335C77.9892 244.279 77.8999 244.252 77.8306 244.252ZM78.6546 246.623C78.4706 246.623 78.2746 246.566 78.0812 246.455C77.4772 246.107 77.0039 245.287 77.0039 244.588C77.0039 244.192 77.1612 243.875 77.4319 243.719C77.7026 243.561 78.0572 243.584 78.4012 243.781C79.0052 244.132 79.4786 244.952 79.4786 245.649C79.4786 246.045 79.3226 246.363 79.0493 246.52C78.9306 246.588 78.7959 246.623 78.6546 246.623Z" fill="#22B022"/>
<path d="M82.0708 246.699C82.0388 246.699 82.0121 246.704 81.9908 246.716C81.9228 246.756 81.8801 246.879 81.8801 247.036C81.8801 247.511 82.2281 248.113 82.6401 248.349C82.7748 248.43 82.9001 248.454 82.9708 248.415C83.0388 248.376 83.0801 248.254 83.0801 248.096C83.0801 247.621 82.7335 247.019 82.3215 246.781C82.2282 246.727 82.1388 246.699 82.0708 246.699ZM82.8935 249.071C82.7095 249.071 82.5135 249.013 82.3215 248.903C81.7175 248.554 81.2441 247.733 81.2441 247.036C81.2441 246.64 81.4001 246.321 81.6721 246.166C81.9441 246.009 82.2975 246.031 82.6401 246.23C83.2441 246.579 83.7175 247.399 83.7175 248.096C83.7175 248.493 83.5615 248.811 83.2895 248.967C83.1708 249.035 83.0348 249.071 82.8935 249.071Z" fill="#22B022"/>
<path d="M101.881 259.995C101.588 259.995 101.267 259.9 100.947 259.715L91.9907 254.548C91.0641 254.012 90.3374 252.854 90.3374 251.907V251.692C90.3374 251.187 90.5374 250.793 90.9014 250.583C91.3121 250.348 91.8628 250.393 92.4188 250.713L101.373 255.881C102.3 256.418 103.027 257.578 103.027 258.523V258.736C103.027 259.243 102.827 259.637 102.461 259.847C102.289 259.947 102.093 259.995 101.881 259.995Z" fill="#22B022"/>
<path d="M91.4854 250.88C91.3508 250.88 91.2281 250.911 91.1228 250.969C90.8428 251.132 90.7841 251.452 90.7841 251.692V251.907C90.7841 252.695 91.4254 253.707 92.2148 254.161L101.169 259.33C101.575 259.564 101.975 259.613 102.237 259.461C102.521 259.299 102.581 258.976 102.581 258.736V258.523C102.581 257.735 101.939 256.724 101.149 256.267L92.1961 251.099C91.9441 250.955 91.6988 250.88 91.4854 250.88ZM101.881 260.44C101.508 260.44 101.107 260.324 100.723 260.101L91.7694 254.933C90.6988 254.316 89.8921 253.015 89.8921 251.907V251.692C89.8921 251.031 90.1788 250.485 90.6788 250.197C91.2334 249.879 91.9468 249.928 92.6414 250.327L101.595 255.496C102.667 256.113 103.472 257.415 103.472 258.523V258.736C103.472 259.4 103.185 259.945 102.684 260.235C102.445 260.371 102.176 260.44 101.881 260.44Z" fill="#22B022"/>
<path d="M101.373 255.827L92.4186 250.659C92.2213 250.545 92.0266 250.479 91.8372 250.435C91.7692 250.603 91.7266 250.79 91.7266 251.001V251.216C91.7266 252.161 92.4532 253.321 93.3799 253.857L102.336 259.024C102.532 259.137 102.725 259.206 102.916 259.249C102.984 259.081 103.027 258.895 103.027 258.683V258.468C103.027 257.523 102.3 256.363 101.373 255.827Z" fill="#B9E2B8"/>
<path d="M92.172 251.032V251.216C92.172 252.004 92.8147 253.015 93.6027 253.472L102.557 258.637C102.565 258.642 102.573 258.647 102.581 258.651V258.469C102.581 257.681 101.939 256.669 101.149 256.212L92.196 251.044C92.188 251.04 92.18 251.036 92.172 251.032ZM103.184 259.769L102.815 259.683C102.559 259.624 102.331 259.535 102.112 259.411L93.1573 254.243C92.088 253.624 91.28 252.323 91.28 251.216V251.001C91.28 250.749 91.3293 250.502 91.424 250.268L91.5667 249.915L91.9374 250C92.1947 250.059 92.4254 250.148 92.6414 250.272L101.595 255.442C102.667 256.059 103.472 257.36 103.472 258.469V258.681C103.472 258.935 103.424 259.183 103.328 259.418L103.184 259.769Z" fill="#22B022"/>
<path d="M353.381 148.492L273.828 102.545C265.317 97.6295 250.449 98.2441 240.62 103.917L58.9374 208.776C49.1081 214.448 48.0401 223.032 56.5508 227.948L136.104 273.893C144.615 278.809 159.483 278.196 169.312 272.523L350.995 167.664C360.824 161.991 361.893 153.407 353.381 148.492Z" fill="#B9E2B8"/>
<path d="M259.403 100.047C253.024 100.047 246.288 101.601 241.035 104.633L59.3506 209.492C54.4466 212.324 51.6346 216.015 51.6333 219.62C51.6333 222.543 53.5266 225.245 56.9639 227.231L136.519 273.178C144.787 277.955 159.313 277.337 168.897 271.807L350.581 166.947C355.485 164.116 358.299 160.425 358.299 156.82C358.3 153.897 356.407 151.195 352.968 149.208L273.413 103.263C269.676 101.104 264.661 100.047 259.403 100.047ZM150.528 278.023C144.967 278.023 139.653 276.9 135.691 274.611L56.136 228.664C52.164 226.371 49.976 223.157 49.9773 219.62C49.9773 215.407 53.0933 211.193 58.5239 208.059L240.205 103.2C250.248 97.4041 265.517 96.7881 274.241 101.828L353.797 147.776C357.769 150.069 359.956 153.281 359.955 156.82C359.955 161.033 356.84 165.247 351.409 168.38L169.727 273.239C164.245 276.403 157.208 278.023 150.528 278.023Z" fill="#B9E2B8"/>
<path d="M353.381 154.064L273.828 108.119C265.317 103.203 250.449 103.816 240.62 109.489L58.9374 214.348C54.884 216.688 52.3467 219.523 51.3293 222.389C52.1307 224.471 53.8587 226.393 56.5507 227.948L136.104 273.893C144.615 278.809 159.483 278.196 169.312 272.523L350.995 167.664C355.048 165.324 357.585 162.489 358.603 159.621C357.801 157.541 356.073 155.619 353.381 154.064Z" fill="white"/>
<path d="M52.2187 222.377C53.0227 224.224 54.656 225.897 56.964 227.231L136.519 273.178C144.787 277.955 159.313 277.337 168.897 271.807L350.581 166.947C354.191 164.864 356.651 162.341 357.713 159.636C356.911 157.788 355.277 156.116 352.968 154.78L273.413 108.835C265.143 104.059 250.62 104.675 241.035 110.207L59.3507 215.064C55.74 217.149 53.2827 219.672 52.2187 222.377ZM150.528 278.023C144.967 278.023 139.653 276.9 135.691 274.611L56.136 228.664C53.3787 227.072 51.4493 225.006 50.5573 222.688L50.448 222.403L50.5493 222.115C51.68 218.923 54.4373 215.989 58.5227 213.631L240.205 108.772C250.248 102.976 265.517 102.361 274.241 107.4L353.797 153.348C356.555 154.941 358.483 157.008 359.375 159.325L359.485 159.609L359.383 159.899C358.252 163.091 355.495 166.024 351.409 168.381L169.727 273.239C164.245 276.403 157.208 278.023 150.528 278.023Z" fill="#B9E2B8"/>
<path d="M244.519 107.2L244.448 102.849L245.339 102.833L245.409 107.185L244.519 107.2Z" fill="#22B022"/>
<path d="M268.301 105.706L268.232 101.355L269.123 101.342L269.192 105.692L268.301 105.706Z" fill="#22B022"/>
<path d="M59.5907 213.564L59.52 209.212L60.412 209.197L60.4827 213.549L59.5907 213.564Z" fill="#22B022"/>
<path d="M348.763 150.923L348.691 146.572L349.581 146.558L349.653 150.908L348.763 150.923Z" fill="#22B022"/>
<path d="M50.956 221.803C50.5813 220.464 50.6493 218.821 50.6533 218.752L51.5439 218.792C51.5426 218.807 51.4786 220.364 51.8146 221.561L50.956 221.803Z" fill="#22B022"/>
<path d="M359.147 159.476L358.291 159.221C358.296 159.203 358.844 157.332 358.656 156.228L359.535 156.079C359.757 157.387 359.171 159.391 359.147 159.476Z" fill="#22B022"/>
<path d="M277.228 130.379L270.529 126.512C268.876 125.557 269.083 123.889 270.992 122.787L275.661 120.092C277.571 118.989 280.46 118.869 282.113 119.824L288.812 123.691C290.465 124.645 290.257 126.313 288.348 127.416L283.68 130.112C281.771 131.215 278.881 131.333 277.228 130.379Z" fill="white"/>
<path d="M277.545 129.828C278.996 130.664 281.66 130.543 283.361 129.56L288.029 126.864C288.819 126.408 289.291 125.827 289.291 125.308C289.291 124.808 288.856 124.454 288.493 124.243L281.795 120.376C280.347 119.539 277.68 119.662 275.98 120.643L271.311 123.339C270.521 123.794 270.051 124.376 270.051 124.894C270.049 125.394 270.484 125.75 270.848 125.96L277.545 129.828ZM280.036 131.664C278.875 131.664 277.76 131.423 276.909 130.931L270.211 127.063C269.285 126.53 268.775 125.759 268.776 124.894C268.776 123.9 269.468 122.931 270.673 122.235L275.343 119.54C277.459 118.315 280.573 118.199 282.431 119.272L289.131 123.14C290.056 123.674 290.565 124.444 290.565 125.31C290.565 126.303 289.873 127.271 288.667 127.968L283.999 130.664C282.852 131.327 281.411 131.664 280.036 131.664Z" fill="#B9E2B8"/>
<path d="M305.005 147.085L301.801 145.236C300.147 144.28 300.355 142.613 302.264 141.511L306.932 138.815C308.843 137.712 311.731 137.592 313.384 138.548L316.589 140.397C318.243 141.352 318.036 143.02 316.127 144.123L311.457 146.819C309.548 147.921 306.659 148.04 305.005 147.085Z" fill="#B9E2B8"/>
<path d="M191.452 204.317L145.037 177.52C143.384 176.565 143.592 174.897 145.501 173.795L228.131 126.089C230.04 124.987 232.929 124.867 234.583 125.821L280.997 152.619C282.651 153.573 282.444 155.241 280.533 156.344L197.904 204.051C195.995 205.153 193.107 205.272 191.452 204.317Z" fill="#B9E2B8"/>
<path d="M213.701 220.984L155.133 187.171C151.437 185.036 146.883 185.036 143.187 187.171L141.028 188.417C139.117 189.52 136.229 189.64 134.576 188.684L133.117 187.843C129.421 185.708 124.867 185.708 121.171 187.843L96.96 201.821C95.0493 202.924 94.8426 204.591 96.496 205.545L168.469 247.099C170.123 248.055 173.011 247.935 174.921 246.832L213.237 224.709C215.147 223.607 215.355 221.94 213.701 220.984Z" fill="#22B022"/>
<path d="M178.581 252.939L178.135 252.68C176.481 251.725 176.688 250.057 178.599 248.955L216.915 226.833C218.824 225.731 221.713 225.611 223.367 226.566L223.813 226.823C225.468 227.779 225.26 229.445 223.351 230.548L185.033 252.671C183.124 253.773 180.236 253.893 178.581 252.939Z" fill="#22B022"/>
<path d="M162.217 262.387L156.807 259.261C155.152 258.307 155.36 256.639 157.269 255.537L162.857 252.311C164.767 251.208 167.656 251.088 169.309 252.043L174.72 255.168C176.375 256.123 176.167 257.79 174.257 258.892L168.669 262.119C166.76 263.221 163.871 263.342 162.217 262.387Z" fill="#22B022"/>
<path d="M150.777 255.251L159.604 250.155C161.38 249.13 161.38 247.466 159.604 246.44L153.536 242.936C151.759 241.911 148.877 241.911 147.1 242.936L125.955 255.144C124.179 256.171 124.179 257.835 125.955 258.86L132.483 262.628L135.241 264.221L139.328 266.58C140.553 267.288 142.388 267.595 144.015 267.249C146.056 266.816 148.325 266.857 150.313 267.379C152.019 267.827 154.027 267.6 155.352 266.835L156.661 266.079C158.439 265.054 158.439 263.39 156.661 262.363L150.777 258.967C149.001 257.94 149.001 256.278 150.777 255.251Z" fill="#B9E2B8"/>
<path d="M108.913 221.019C107.297 220.085 107.469 218.476 109.26 217.373L92.6346 207.775C90.9813 206.82 88.092 206.94 86.1826 208.043L73.608 215.303C71.6986 216.405 71.4906 218.073 73.1453 219.028L99.8853 234.467C101.539 235.421 104.428 235.301 106.337 234.199L118.912 226.939C118.956 226.913 118.987 226.884 119.028 226.859L108.913 221.019Z" fill="#22B022"/>
<path d="M123.788 248.267L109.735 240.154C108.081 239.199 108.289 237.531 110.199 236.428L122.773 229.168C124.683 228.066 127.572 227.945 129.225 228.901L143.279 237.015C144.932 237.969 144.725 239.637 142.815 240.74L130.24 248C128.331 249.103 125.441 249.221 123.788 248.267Z" fill="white"/>
<path d="M126.432 228.896C125.269 228.896 124.033 229.176 123.092 229.719L110.517 236.979C109.727 237.436 109.256 238.018 109.256 238.536C109.256 239.037 109.689 239.393 110.053 239.603L124.107 247.715C125.559 248.554 128.22 248.431 129.921 247.448L142.496 240.19C143.287 239.732 143.757 239.151 143.757 238.631C143.757 238.131 143.324 237.776 142.96 237.566L128.907 229.452C128.259 229.079 127.369 228.896 126.432 228.896ZM126.597 249.552C125.436 249.552 124.321 249.311 123.471 248.818L109.416 240.706C108.491 240.172 107.981 239.4 107.981 238.536C107.981 237.542 108.673 236.572 109.88 235.878L122.455 228.618C124.571 227.393 127.687 227.278 129.544 228.349L143.597 236.463C144.523 236.996 145.032 237.768 145.032 238.631C145.032 239.625 144.34 240.595 143.133 241.291L130.559 248.551C129.412 249.213 127.972 249.552 126.597 249.552Z" fill="#B9E2B8"/>
<path d="M122.277 252.384C123.04 251.945 123.04 251.232 122.277 250.792L103.163 239.756L95.004 235.045L77.5973 224.996C76.836 224.556 75.6 224.556 74.8387 224.996L71.7133 226.8C70.952 227.24 70.952 227.954 71.7133 228.392L95.9 242.357C96.6627 242.797 97.8973 242.797 98.6586 242.357L98.8427 242.251C99.604 241.811 100.839 241.811 101.6 242.251L119.336 252.491C120.097 252.931 121.332 252.931 122.093 252.491L122.277 252.384Z" fill="#22B022"/>
<path d="M311.992 161.172L318.169 164.739C319.667 165.603 321.511 165.603 323.008 164.739C324.917 163.636 327.807 163.516 329.46 164.471L333.629 166.879L334.057 166.632C340.223 163.072 340.892 157.688 335.553 154.605L329.46 151.088C327.807 150.132 324.917 150.252 323.008 151.355L312.456 157.447C310.547 158.549 310.339 160.217 311.992 161.172Z" fill="#22B022"/>
<path d="M304.349 180.327L291.583 172.956C289.929 172.001 290.136 170.333 292.047 169.231L302.599 163.139C304.508 162.036 307.396 161.916 309.051 162.871L321.816 170.241C323.471 171.196 323.263 172.864 321.353 173.967L310.801 180.059C308.891 181.161 306.003 181.281 304.349 180.327Z" fill="#B9E2B8"/>
<path d="M295.348 160.904L295.067 160.743C294.028 160.143 294.159 159.095 295.359 158.401L297.999 156.877C299.199 156.184 301.015 156.108 302.055 156.708L302.335 156.871C303.375 157.471 303.244 158.519 302.044 159.212L299.404 160.736C298.203 161.429 296.388 161.505 295.348 160.904Z" fill="#22B022"/>
<path d="M231.545 190.097L231.264 189.936C230.225 189.336 230.355 188.288 231.556 187.595L234.196 186.069C235.396 185.377 237.212 185.301 238.252 185.901L238.532 186.064C239.572 186.664 239.441 187.712 238.241 188.405L235.601 189.929C234.4 190.623 232.584 190.699 231.545 190.097Z" fill="#22B022"/>
<path d="M221.432 195.936L221.152 195.775C220.112 195.175 220.243 194.127 221.443 193.433L224.083 191.908C225.283 191.216 227.099 191.14 228.139 191.74L228.419 191.903C229.459 192.503 229.328 193.551 228.128 194.244L225.488 195.768C224.288 196.461 222.472 196.537 221.432 195.936Z" fill="white"/>
<path d="M221.751 195.385C222.6 195.877 224.167 195.795 225.169 195.217L227.809 193.693C228.307 193.405 228.484 193.104 228.484 192.919C228.484 192.707 228.244 192.537 228.101 192.453L227.821 192.293C226.973 191.801 225.405 191.881 224.401 192.46L221.76 193.984C221.264 194.272 221.087 194.572 221.087 194.757C221.087 194.971 221.327 195.14 221.469 195.223L221.751 195.385ZM223.197 196.977C222.425 196.977 221.683 196.816 221.113 196.489L221.112 196.488L220.831 196.325C220.176 195.945 219.813 195.389 219.812 194.757C219.812 194.047 220.291 193.363 221.124 192.881L223.764 191.357C225.16 190.552 227.225 190.477 228.457 191.189L228.737 191.351C229.395 191.731 229.759 192.287 229.759 192.919C229.759 193.631 229.28 194.315 228.445 194.795L225.807 196.319C225.052 196.756 224.104 196.977 223.197 196.977Z" fill="#B9E2B8"/>
<path d="M278.616 170.565L278.335 170.403C277.296 169.803 277.425 168.755 278.627 168.061L287.427 162.981C288.627 162.288 290.443 162.212 291.481 162.812L291.763 162.975C292.803 163.575 292.672 164.623 291.472 165.316L282.672 170.397C281.471 171.089 279.656 171.165 278.616 170.565Z" fill="white"/>
<path d="M289.728 163.043C289.041 163.043 288.305 163.209 287.744 163.532L278.945 168.613C278.448 168.9 278.271 169.201 278.269 169.387C278.269 169.599 278.509 169.769 278.653 169.852L278.935 170.012C279.781 170.504 281.348 170.423 282.353 169.845L291.153 164.765C291.651 164.477 291.828 164.177 291.828 163.992C291.828 163.78 291.587 163.609 291.444 163.528L291.161 163.363C290.787 163.147 290.272 163.043 289.728 163.043ZM280.383 171.605C279.608 171.605 278.865 171.444 278.297 171.117L278.017 170.956C277.357 170.575 276.996 170.017 276.996 169.385C276.997 168.675 277.475 167.991 278.308 167.511L287.108 162.431C288.507 161.621 290.567 161.547 291.8 162.261L292.083 162.424C292.739 162.803 293.101 163.36 293.101 163.992C293.101 164.703 292.624 165.387 291.791 165.868L282.989 170.948C282.236 171.384 281.288 171.605 280.383 171.605Z" fill="#B9E2B8"/>
<path d="M242.393 183.835L242.112 183.672C241.073 183.072 241.204 182.024 242.404 181.331L267.66 166.749C268.86 166.056 270.676 165.981 271.716 166.581L271.996 166.743C273.036 167.344 272.905 168.392 271.705 169.085L246.449 183.667C245.249 184.36 243.433 184.435 242.393 183.835Z" fill="#22B022"/>
<path d="M227.124 224.912L202.037 210.429C200.384 209.475 200.592 207.807 202.501 206.704L211.399 201.568C213.308 200.465 216.197 200.345 217.851 201.3L242.936 215.783C244.589 216.737 244.383 218.405 242.473 219.508L233.576 224.645C231.665 225.748 228.777 225.867 227.124 224.912Z" fill="#22B022"/>
<path d="M246.429 213.765L229.987 204.272C228.332 203.317 228.54 201.649 230.449 200.547L242.84 193.393C244.751 192.291 247.639 192.171 249.292 193.125L265.736 202.62C267.389 203.575 267.183 205.243 265.273 206.344L252.881 213.499C250.972 214.601 248.084 214.721 246.429 213.765Z" fill="#22B022"/>
<path d="M274.011 197.843L257.567 188.349C255.913 187.393 256.12 185.727 258.031 184.624L272.995 175.984C274.905 174.881 277.793 174.761 279.448 175.716L295.891 185.209C297.544 186.164 297.337 187.832 295.428 188.935L280.463 197.575C278.553 198.677 275.664 198.797 274.011 197.843Z" fill="white"/>
<path d="M276.652 175.712C275.491 175.712 274.255 175.992 273.313 176.535L258.349 185.175C257.559 185.632 257.088 186.212 257.088 186.731C257.088 187.231 257.521 187.587 257.885 187.797L274.329 197.291C275.779 198.129 278.441 198.005 280.143 197.023L295.109 188.383C295.899 187.927 296.371 187.345 296.371 186.827C296.371 186.327 295.936 185.971 295.572 185.763L279.129 176.268C278.481 175.895 277.591 175.712 276.652 175.712ZM276.819 199.127C275.657 199.127 274.543 198.885 273.692 198.393L257.248 188.9C256.324 188.365 255.813 187.596 255.813 186.731C255.813 185.737 256.505 184.768 257.712 184.073L272.676 175.433C274.793 174.209 277.907 174.089 279.767 175.165L296.209 184.659C297.135 185.192 297.644 185.963 297.644 186.827C297.644 187.821 296.953 188.791 295.747 189.485L280.78 198.125C279.633 198.788 278.193 199.127 276.819 199.127Z" fill="#B9E2B8"/>
<path d="M283.204 151.346L243.776 128.582C242.123 127.627 242.329 125.959 244.24 124.858L247.621 122.904C249.531 121.802 252.419 121.683 254.073 122.638L293.5 145.4C295.155 146.355 294.947 148.023 293.037 149.126L289.656 151.078C287.745 152.18 284.857 152.3 283.204 151.346Z" fill="#22B022"/>
<path d="M291.385 138.554L286.893 135.96C285.24 135.006 285.448 133.338 287.357 132.235L288.624 131.504C290.533 130.402 293.423 130.282 295.076 131.236L299.568 133.83C301.221 134.784 301.015 136.452 299.106 137.555L297.837 138.286C295.928 139.388 293.04 139.508 291.385 138.554Z" fill="#22B022"/>
<path d="M90.5106 202.457L89.8733 201.355L227.96 121.631L228.596 122.735L90.5106 202.457Z" fill="#B9E2B8"/>
<path d="M64.5 224.963C62.512 223.816 61.5119 222.452 61.5253 220.905C61.5546 217.624 66.3293 214.944 66.532 214.831L86.012 203.584L86.6493 204.687L67.1586 215.939C65.9453 216.613 62.8173 218.811 62.8 220.917C62.7906 221.969 63.5773 222.96 65.136 223.861L64.5 224.963Z" fill="#B9E2B8"/>
<path d="M234.849 119.124L234.212 118.021L243.727 112.527C251.176 108.227 263.3 108.227 270.749 112.527L276.128 115.632L275.491 116.736L270.112 113.631C263.013 109.532 251.463 109.532 244.364 113.631L234.849 119.124Z" fill="#B9E2B8"/>
<path d="M264.22 122.027C262.687 122.911 260.799 122.911 259.267 122.027L248.136 115.6L249.274 114.944C254.13 112.14 261.475 111.836 265.68 114.264L269.287 116.347C270.347 116.959 270.347 118.488 269.287 119.1L264.22 122.027Z" fill="#22B022"/>
<path d="M249.411 115.6L259.585 121.475C260.917 122.243 262.571 122.243 263.901 121.475L268.968 118.549C269.267 118.377 269.444 118.068 269.444 117.724C269.444 117.379 269.267 117.071 268.968 116.899L265.361 114.816C261.337 112.492 254.263 112.797 249.592 115.496L249.411 115.6ZM261.743 123.324C260.776 123.324 259.811 123.076 258.948 122.577L246.863 115.6L248.955 114.392C253.979 111.492 261.624 111.188 265.999 113.712L269.605 115.795C270.302 116.197 270.719 116.919 270.719 117.724C270.719 118.528 270.302 119.251 269.605 119.652L264.539 122.577C263.676 123.076 262.709 123.324 261.743 123.324Z" fill="#B9E2B8"/>
<path d="M70.7014 222.607C69.94 223.047 68.7054 223.047 67.944 222.607C67.1827 222.167 67.1827 221.455 67.944 221.015C68.7054 220.575 69.94 220.575 70.7014 221.015C71.464 221.455 71.464 222.167 70.7014 222.607Z" fill="#22B022"/>
<path d="M148.296 271.759C147.533 272.197 146.299 272.197 145.537 271.759C144.776 271.319 144.776 270.606 145.537 270.166C146.299 269.727 147.533 269.727 148.296 270.166C149.057 270.606 149.057 271.319 148.296 271.759Z" fill="#B9E2B8"/>
<path d="M146.916 270.472C146.527 270.472 146.139 270.555 145.857 270.718C145.648 270.837 145.603 270.943 145.603 270.961C145.603 270.981 145.648 271.085 145.856 271.206C146.423 271.533 147.412 271.531 147.976 271.207L147.977 271.206C148.185 271.085 148.231 270.981 148.231 270.961C148.231 270.943 148.185 270.837 147.976 270.716C147.695 270.555 147.305 270.472 146.916 270.472ZM146.916 272.721C146.305 272.721 145.695 272.584 145.22 272.309C144.655 271.984 144.331 271.492 144.329 270.963C144.329 270.433 144.653 269.94 145.22 269.615C146.171 269.064 147.66 269.066 148.613 269.613C149.18 269.94 149.504 270.433 149.504 270.963C149.503 271.492 149.179 271.984 148.613 272.309C148.137 272.585 147.528 272.721 146.916 272.721Z" fill="#B9E2B8"/>
<path d="M224.785 201.269C224.024 201.709 222.789 201.709 222.028 201.269C221.265 200.829 221.265 200.117 222.028 199.677C222.789 199.237 224.024 199.237 224.785 199.677C225.547 200.117 225.547 200.829 224.785 201.269Z" fill="#22B022"/>
<path d="M209.456 209.589C208.695 210.029 207.46 210.029 206.699 209.589C205.936 209.149 205.936 208.436 206.699 207.997C207.46 207.557 208.695 207.557 209.456 207.997C210.217 208.436 210.217 209.149 209.456 209.589Z" fill="white"/>
<path d="M208.077 208.304C207.688 208.304 207.299 208.387 207.016 208.549C206.808 208.668 206.764 208.773 206.764 208.793C206.764 208.812 206.808 208.917 207.016 209.039C207.581 209.36 208.572 209.364 209.137 209.037C209.347 208.917 209.391 208.812 209.391 208.793C209.391 208.773 209.347 208.668 209.139 208.549C208.855 208.387 208.467 208.304 208.077 208.304ZM208.077 210.552C207.467 210.552 206.856 210.415 206.379 210.141C205.813 209.813 205.489 209.321 205.489 208.792C205.489 208.261 205.815 207.771 206.379 207.444C207.332 206.897 208.824 206.897 209.775 207.444C210.339 207.771 210.664 208.261 210.665 208.792C210.665 209.321 210.34 209.815 209.775 210.14V210.141C209.299 210.415 208.688 210.552 208.077 210.552Z" fill="#B9E2B8"/>
<path d="M249.263 188.199C248.501 188.639 247.267 188.639 246.505 188.199C245.744 187.759 245.744 187.047 246.505 186.607C247.267 186.167 248.501 186.167 249.263 186.607C250.024 187.047 250.024 187.759 249.263 188.199Z" fill="#22B022"/>
<path d="M300.448 182.68C300.059 182.68 299.669 182.761 299.388 182.925C299.18 183.045 299.135 183.151 299.135 183.169C299.135 183.189 299.18 183.293 299.388 183.413C299.951 183.74 300.943 183.741 301.508 183.415V183.413C301.716 183.293 301.761 183.189 301.761 183.169C301.761 183.151 301.716 183.045 301.508 182.924C301.227 182.761 300.837 182.68 300.448 182.68ZM300.447 184.929C299.836 184.929 299.225 184.793 298.751 184.517C298.185 184.192 297.861 183.701 297.861 183.171C297.861 182.641 298.184 182.149 298.751 181.823C299.701 181.272 301.192 181.273 302.145 181.821C302.712 182.149 303.035 182.641 303.035 183.171C303.035 183.701 302.711 184.192 302.145 184.519C301.669 184.793 301.059 184.929 300.447 184.929Z" fill="#B9E2B8"/>
<path d="M296.311 180.781C295.549 181.221 294.315 181.221 293.553 180.781C292.791 180.341 292.791 179.628 293.553 179.189C294.315 178.749 295.549 178.749 296.311 179.189C297.072 179.628 297.072 180.341 296.311 180.781Z" fill="#22B022"/>
<path d="M295.943 154.348C295.181 154.788 293.947 154.788 293.185 154.348C292.424 153.908 292.424 153.195 293.185 152.756C293.947 152.316 295.181 152.316 295.943 152.756C296.705 153.195 296.705 153.908 295.943 154.348Z" fill="#22B022"/>
<path d="M241.241 122.765C240.48 123.205 239.245 123.205 238.484 122.765C237.721 122.327 237.721 121.613 238.484 121.173C239.245 120.733 240.48 120.733 241.241 121.173C242.003 121.613 242.003 122.327 241.241 122.765Z" fill="#B9E2B8"/>
<path d="M239.863 121.481C239.473 121.481 239.084 121.563 238.801 121.726C238.593 121.846 238.549 121.951 238.549 121.969C238.549 121.989 238.593 122.093 238.801 122.215C239.365 122.54 240.356 122.54 240.923 122.215C241.132 122.093 241.176 121.989 241.176 121.969C241.176 121.951 241.132 121.846 240.923 121.726C240.64 121.563 240.252 121.481 239.863 121.481ZM239.863 123.729C239.252 123.729 238.641 123.592 238.164 123.317C237.6 122.991 237.275 122.5 237.275 121.969C237.275 121.44 237.6 120.948 238.164 120.622C239.117 120.074 240.609 120.074 241.56 120.622C242.125 120.948 242.451 121.44 242.451 121.969C242.451 122.5 242.125 122.991 241.56 123.317C241.083 123.592 240.473 123.729 239.863 123.729Z" fill="#B9E2B8"/>
<path d="M320.765 147.66C320.004 148.1 318.769 148.1 318.008 147.66C317.245 147.22 317.245 146.508 318.008 146.068C318.769 145.628 320.004 145.628 320.765 146.068C321.527 146.508 321.527 147.22 320.765 147.66Z" fill="#B9E2B8"/>
<path d="M319.387 146.375C318.997 146.375 318.609 146.456 318.327 146.62C318.117 146.74 318.073 146.845 318.073 146.864C318.073 146.884 318.117 146.988 318.325 147.108C318.893 147.436 319.881 147.433 320.447 147.108H320.448C320.656 146.988 320.7 146.884 320.7 146.864C320.7 146.845 320.656 146.74 320.447 146.62C320.164 146.456 319.775 146.375 319.387 146.375ZM319.387 148.624C318.776 148.624 318.165 148.485 317.689 148.211C317.124 147.887 316.799 147.395 316.799 146.865C316.799 146.335 317.124 145.843 317.689 145.516C318.64 144.967 320.133 144.967 321.084 145.516C321.649 145.843 321.975 146.335 321.975 146.865C321.975 147.395 321.649 147.887 321.084 148.212C320.607 148.487 319.997 148.624 319.387 148.624Z" fill="#B9E2B8"/>
<path d="M305.277 155.172L304.996 155.011C303.957 154.409 304.087 153.361 305.288 152.668L310.111 149.884C311.312 149.191 313.127 149.115 314.167 149.716L314.448 149.877C315.487 150.477 315.357 151.527 314.156 152.219L309.332 155.004C308.132 155.697 306.316 155.772 305.277 155.172Z" fill="#22B022"/>
<path d="M274.932 165.621L274.295 164.519L289.649 155.655L290.285 156.757L274.932 165.621Z" fill="#B9E2B8"/>
<path d="M251.259 185.659L250.623 184.556L273.513 171.34L274.151 172.443L251.259 185.659Z" fill="#B9E2B8"/>
<path d="M269.761 200.909L252.439 190.908C252.043 190.68 252.093 190.281 252.549 190.017C253.007 189.753 253.699 189.724 254.093 189.953L271.416 199.953C271.811 200.183 271.761 200.581 271.304 200.845C270.848 201.109 270.156 201.137 269.761 200.909Z" fill="#B9E2B8"/>
<path d="M270.079 200.359C270.231 200.447 270.571 200.455 270.841 200.36L253.776 190.504C253.625 190.419 253.284 190.408 253.012 190.503L270.079 200.359ZM270.433 201.7C270.071 201.7 269.72 201.62 269.444 201.461L269.443 201.46L252.12 191.46C251.748 191.244 251.535 190.903 251.535 190.52C251.535 190.105 251.788 189.72 252.231 189.465C252.883 189.089 253.821 189.06 254.413 189.401L271.733 199.403C272.105 199.617 272.32 199.959 272.32 200.341C272.32 200.756 272.065 201.141 271.623 201.397C271.276 201.597 270.848 201.7 270.433 201.7Z" fill="#B9E2B8"/>
<path d="M155.877 272.149L155.24 271.047L157.568 269.704C159.424 268.632 161.753 267.893 164.304 267.571C166.687 267.268 168.851 266.587 170.563 265.597L329.089 174.073L329.725 175.176L171.2 266.7C169.343 267.773 167.013 268.511 164.464 268.835C162.08 269.136 159.916 269.819 158.205 270.805L155.877 272.149Z" fill="#B9E2B8"/>
<path d="M332.668 173.477L332.031 172.375L343.063 166.005C345.707 164.479 347.163 162.488 347.163 160.399C347.163 158.309 345.707 156.32 343.063 154.793L330.376 147.468L331.013 146.365L343.7 153.691C346.755 155.453 348.436 157.836 348.436 160.399C348.436 162.961 346.755 165.345 343.7 167.108L332.668 173.477Z" fill="#B9E2B8"/>
<path d="M286.605 200.703L282.445 198.253C278.252 195.832 276.145 192.487 276.668 189.075C276.905 187.528 275.951 186.011 274.048 184.912L268.837 181.64L276.56 177.181L281.769 180.453C285.964 182.875 288.069 186.22 287.548 189.631C287.311 191.179 288.265 192.696 290.168 193.795L294.328 196.244L286.605 200.703Z" fill="#22B022"/>
<path d="M141.127 215.528C137.083 215.528 133.039 214.64 129.957 212.861C126.86 211.073 125.155 208.653 125.155 206.048C125.155 203.443 126.86 201.023 129.959 199.233L153.311 185.751L153.948 186.853L130.596 200.336C127.908 201.888 126.428 203.916 126.428 206.048C126.428 208.179 127.908 210.207 130.595 211.759C136.401 215.111 145.848 215.111 151.653 211.76L175.005 198.277L175.643 199.38L152.291 212.863C149.213 214.64 145.169 215.528 141.127 215.528Z" fill="#B9E2B8"/>
<path d="M141.125 209.24C139.887 209.24 138.648 208.961 137.681 208.403C136.643 207.804 136.069 206.968 136.069 206.048C136.069 205.129 136.643 204.292 137.681 203.692L161.033 190.209L161.671 191.312L138.317 204.795C137.699 205.153 137.344 205.609 137.344 206.048C137.344 206.487 137.7 206.943 138.317 207.3C139.84 208.179 142.411 208.177 143.931 207.301L167.284 193.819L167.921 194.921L144.568 208.404C143.603 208.961 142.364 209.24 141.125 209.24Z" fill="#B9E2B8"/>
<path d="M282.567 126.773C280.967 127.697 278.373 127.697 276.775 126.773C275.175 125.851 275.175 124.353 276.775 123.429C278.373 122.507 280.967 122.507 282.567 123.429C284.165 124.353 284.165 125.851 282.567 126.773Z" fill="#22B022"/>
<path d="M280.497 125.579C280.041 125.843 279.3 125.843 278.843 125.579C278.387 125.316 278.387 124.888 278.843 124.624C279.3 124.36 280.041 124.36 280.497 124.624C280.955 124.888 280.955 125.316 280.497 125.579Z" fill="#B9E2B8"/>
<path d="M311.54 144.171C310.245 144.918 308.145 144.918 306.851 144.171C305.556 143.423 305.556 142.211 306.851 141.463C308.145 140.716 310.245 140.716 311.54 141.463C312.835 142.211 312.835 143.423 311.54 144.171Z" fill="white"/>
<path d="M256.871 205.993C255.753 206.639 254.064 206.708 253.096 206.151L249.613 204.139C248.645 203.58 248.767 202.604 249.884 201.96C251.001 201.315 252.691 201.245 253.657 201.803L257.141 203.815C258.109 204.373 257.988 205.349 256.871 205.993Z" fill="white"/>
<path d="M250.668 209.575C249.551 210.22 247.861 210.291 246.893 209.732L243.409 207.72C242.443 207.161 242.564 206.185 243.68 205.541C244.797 204.896 246.487 204.827 247.455 205.384L250.939 207.396C251.905 207.955 251.784 208.931 250.668 209.575Z" fill="#B9E2B8"/>
<path d="M130.044 235.799C128.927 236.444 127.237 236.513 126.269 235.955L122.785 233.944C121.819 233.385 121.94 232.409 123.057 231.764C124.173 231.12 125.864 231.049 126.831 231.608L130.315 233.62C131.283 234.179 131.161 235.154 130.044 235.799Z" fill="#22B022"/>
<path d="M123.84 239.38C122.724 240.025 121.033 240.095 120.067 239.536L116.583 237.525C115.615 236.967 115.736 235.991 116.853 235.347C117.971 234.701 119.66 234.631 120.628 235.19L124.112 237.201C125.079 237.76 124.957 238.735 123.84 239.38Z" fill="#B9E2B8"/>
<path d="M100.121 212.097L94.4106 215.395C93.3746 215.993 91.8066 216.057 90.908 215.54L90.6666 215.4C89.768 214.881 89.8813 213.976 90.9173 213.377L96.628 210.08L100.121 212.097Z" fill="#B9E2B8"/>
<path d="M153.555 265.797L153.287 265.643C152.295 265.071 152.419 264.069 153.565 263.408L163.64 257.591C164.785 256.93 166.519 256.857 167.512 257.431L167.78 257.585C168.772 258.159 168.647 259.159 167.501 259.82L157.427 265.637C156.28 266.299 154.547 266.371 153.555 265.797Z" fill="#22B022"/>
<path d="M165.836 257.678C165.185 257.678 164.489 257.836 163.959 258.143L153.883 263.959C153.419 264.228 153.253 264.511 153.253 264.672C153.253 264.861 153.473 265.016 153.605 265.092L153.873 265.247C154.675 265.707 156.155 265.636 157.108 265.085L167.183 259.269C167.647 259 167.813 258.718 167.813 258.556C167.813 258.368 167.592 258.212 167.461 258.137L167.192 257.981C166.839 257.778 166.351 257.678 165.836 257.678ZM155.24 266.82C154.497 266.82 153.783 266.664 153.236 266.349L152.969 266.196C152.331 265.827 151.98 265.287 151.98 264.672C151.98 263.983 152.441 263.32 153.247 262.856L163.321 257.04C164.665 256.263 166.645 256.195 167.831 256.878L168.099 257.035C168.735 257.401 169.087 257.943 169.087 258.556C169.087 259.247 168.625 259.908 167.82 260.372L157.745 266.188C157.02 266.607 156.111 266.82 155.24 266.82Z" fill="#B9E2B8"/>
<path d="M165.837 168.191L160.523 165.123L182.587 152.384L187.901 155.452C190.445 156.921 194.184 157.499 197.657 156.959C211.876 154.748 227.177 157.109 237.589 163.121L253.692 172.548L231.628 185.287L215.525 175.86C212.981 174.391 209.243 173.813 205.769 174.353C191.551 176.564 176.249 174.203 165.837 168.191Z" fill="white"/>
<path d="M153.076 238.212L137.631 229.295L154.915 219.316C163.815 214.179 178.377 214.179 187.276 219.316L204.928 229.508L189.483 238.425L174.733 229.909C172.732 228.755 169.459 228.755 167.459 229.909L153.076 238.212Z" fill="white"/>
<path d="M267.581 142.693L266.944 141.589L276.285 136.197L261.795 127.832L262.432 126.728L278.833 136.197L267.581 142.693Z" fill="#B9E2B8"/>
<path d="M235.901 218.468L226.8 213.213L227.437 212.111L236.539 217.365L235.901 218.468Z" fill="#B9E2B8"/>
<path d="M233.189 220.033L224.088 214.779L224.725 213.676L233.827 218.931L233.189 220.033Z" fill="#B9E2B8"/>
<path d="M108.857 229.396L99.7546 224.141L100.392 223.039L109.495 228.293L108.857 229.396Z" fill="#B9E2B8"/>
<path d="M106.145 230.961L97.0427 225.707L97.6801 224.605L106.783 229.86L106.145 230.961Z" fill="#B9E2B8"/>
<path d="M162.535 244.408L150.625 237.506L151.264 236.403L163.173 243.307L162.535 244.408Z" fill="#B9E2B8"/>
<path d="M207.759 218.289L186.012 205.724L186.649 204.621L208.396 217.187L207.759 218.289Z" fill="#B9E2B8"/>
<path d="M86.1734 237.484L80.8228 234.383L81.4627 233.281L86.8121 236.383L86.1734 237.484Z" fill="#B9E2B8"/>
<path d="M333.883 154.383L328.533 151.281L329.172 150.179L334.521 153.28L333.883 154.383Z" fill="#B9E2B8"/>
<path d="M288.573 143.818L283.223 140.716L283.861 139.614L289.212 142.715L288.573 143.818Z" fill="#B9E2B8"/>
<path d="M190.113 204.06L189.771 202.833L200.803 199.743L201.145 200.969L190.113 204.06Z" fill="#22B022"/>
<path d="M186.705 201.969L186.363 200.743L197.395 197.652L197.739 198.879L186.705 201.969Z" fill="#22B022"/>
<path d="M183.023 199.968L182.679 198.741L193.711 195.651L194.055 196.877L183.023 199.968Z" fill="#22B022"/>
<path d="M179.613 197.879L179.271 196.652L190.303 193.563L190.645 194.789L179.613 197.879Z" fill="#22B022"/>
<path d="M175.803 195.752L175.46 194.525L186.492 191.435L186.836 192.661L175.803 195.752Z" fill="#B9E2B8"/>
<path d="M182.228 244.349L181.885 243.123L192.917 240.032L193.261 241.259L182.228 244.349Z" fill="#B9E2B8"/>
<path d="M178.82 242.26L178.476 241.033L189.509 237.944L189.852 239.171L178.82 242.26Z" fill="#B9E2B8"/>
<path d="M175.011 240.133L174.668 238.907L185.7 235.816L186.043 237.043L175.011 240.133Z" fill="#B9E2B8"/>
<path d="M171.603 238.044L171.259 236.818L182.291 233.727L182.635 234.954L171.603 238.044Z" fill="#B9E2B8"/>
<path d="M315.565 74.3428V105.236C315.565 110.627 312.753 115.628 308.147 118.428L296.964 125.227C295.195 126.303 293.796 127.955 293.225 129.944C292.243 133.371 293.535 136.87 296.305 138.834L299.685 141.058C300.299 141.462 301.087 141.487 301.725 141.126L306.627 138.344C307.161 138.04 307.204 137.284 306.705 136.924L300.727 132.599C300.673 132.562 300.533 132.463 300.543 132.227C300.551 131.992 300.696 131.904 300.751 131.871L312.117 124.96C319.004 120.772 323.208 113.296 323.208 105.236V79.0162L315.565 74.3428Z" fill="white"/>
<path d="M296.964 125.227C295.195 126.303 293.796 127.955 293.225 129.944C292.243 133.371 293.535 136.87 296.305 138.834L299.685 141.058C300.299 141.462 301.087 141.487 301.725 141.126L306.627 138.344C307.161 138.04 307.204 137.284 306.705 136.924L300.727 132.599C300.673 132.562 300.533 132.463 300.543 132.227C300.551 131.992 300.696 131.904 300.751 131.871L303.392 130.264C310.279 126.078 301.569 122.427 296.964 125.227Z" fill="white"/>
<path d="M300.76 142.019C300.263 142.019 299.768 141.875 299.333 141.589L295.955 139.365C292.871 137.18 291.567 133.417 292.613 129.768C293.204 127.705 294.632 125.9 296.633 124.683L297.295 125.772C295.568 126.821 294.34 128.365 293.837 130.119C292.943 133.241 294.056 136.459 296.673 138.315L300.035 140.525C300.452 140.8 300.98 140.817 301.411 140.571L306.312 137.789C306.399 137.741 306.415 137.661 306.417 137.62C306.42 137.577 306.411 137.497 306.332 137.44L300.353 133.115C299.945 132.824 299.897 132.419 299.905 132.203C299.913 131.988 299.991 131.589 300.417 131.328L303.061 129.72L303.723 130.808L301.34 132.257L307.079 136.407C307.488 136.704 307.717 137.184 307.689 137.689C307.661 138.196 307.381 138.647 306.941 138.897L302.04 141.679C301.639 141.905 301.199 142.019 300.76 142.019Z" fill="#B9E2B8"/>
<path d="M315.884 97.8722L315.247 96.7695L322.889 92.3575L323.527 93.4615L315.884 97.8722Z" fill="#B9E2B8"/>
<path d="M315.884 104.105L315.247 103.003L322.889 98.5908L323.527 99.6948L315.884 104.105Z" fill="#B9E2B8"/>
<path d="M297.885 140.66L297.249 139.556L304.892 135.145L305.529 136.249L297.885 140.66Z" fill="#B9E2B8"/>
<path d="M294.064 137.652L293.427 136.548L301.071 132.137L301.708 133.24L294.064 137.652Z" fill="#B9E2B8"/>
<path d="M353.344 53.1814L273.789 7.23474C265.279 2.32008 250.411 2.93343 240.581 8.60675L58.8986 113.465C49.0706 119.139 48.0013 127.721 56.512 132.637L136.067 178.584C144.577 183.499 159.445 182.885 169.275 177.212L350.957 72.3534C360.787 66.6801 361.855 58.0974 353.344 53.1814Z" fill="#B9E2B8"/>
<path d="M259.365 4.73749C252.985 4.73749 246.249 6.29214 240.996 9.32414L59.3134 114.183C54.4094 117.013 51.596 120.704 51.5947 124.309C51.5947 127.232 53.488 129.935 56.9267 131.92L136.48 177.868C144.748 182.641 159.276 182.028 168.86 176.495L350.543 71.6362C355.447 68.8068 358.26 65.1148 358.26 61.5095C358.261 58.5868 356.368 55.8842 352.929 53.8988L273.376 7.95218C269.639 5.7935 264.624 4.73749 259.365 4.73749ZM150.489 182.712C144.928 182.713 139.616 181.589 135.652 179.3L56.0974 133.355C52.1254 131.06 49.9387 127.848 49.9387 124.309C49.9401 120.096 53.0547 115.883 58.4854 112.748L240.168 7.88948C250.209 2.09482 265.476 1.47884 274.204 6.5175L353.759 52.4642C357.731 54.7588 359.917 57.9708 359.916 61.5095C359.916 65.7228 356.801 69.9362 351.371 73.0708L169.689 177.928C164.209 181.092 157.169 182.712 150.489 182.712Z" fill="#B9E2B8"/>
<path d="M353.344 50.9521L273.789 5.00543C265.279 0.0907745 250.412 0.704117 240.583 6.37744L58.9001 111.236C49.0708 116.909 48.0014 125.492 56.5121 130.408L136.067 176.355C144.577 181.269 159.445 180.656 169.275 174.983L350.957 70.1241C360.787 64.4508 361.855 55.8681 353.344 50.9521Z" fill="white"/>
<path d="M259.365 2.50812C252.985 2.50812 246.249 4.06277 240.996 7.09477L59.3134 111.953C54.4094 114.784 51.596 118.475 51.596 122.08C51.5947 125.003 53.488 127.705 56.9267 129.691L136.48 175.639C144.748 180.413 159.276 179.797 168.86 174.265L350.543 69.4068C355.447 66.5775 358.26 62.8855 358.26 59.2801C358.261 56.3575 356.368 53.6548 352.929 51.6694L273.376 5.72276C269.639 3.5641 264.624 2.50812 259.365 2.50812ZM150.489 180.483C144.928 180.484 139.616 179.36 135.652 177.071L56.0974 131.125C52.1267 128.831 49.9387 125.619 49.9387 122.08C49.9401 117.867 53.0547 113.653 58.4854 110.519L240.168 5.66011C250.209 -0.134567 265.476 -0.750565 274.204 4.2881L353.759 50.2348C357.731 52.5294 359.917 55.7415 359.916 59.2801C359.916 63.4935 356.801 67.7068 351.371 70.8415L169.689 175.699C164.209 178.863 157.169 180.483 150.489 180.483Z" fill="#B9E2B8"/>
<path d="M60.5174 116.883L244.368 11.1642C252.245 6.63483 265.124 6.6575 272.985 11.2148L349.355 55.4842C353.635 57.9655 353.627 62.0122 349.339 64.4775L165.488 170.196C157.611 174.725 144.732 174.703 136.871 170.145L60.5014 125.876C56.2214 123.395 56.2294 119.348 60.5174 116.883Z" fill="#22B022"/>
<path d="M60.9307 117.6C59.124 118.639 58.1267 119.98 58.124 121.375C58.1213 122.771 59.1134 124.115 60.9174 125.159L137.287 169.429C144.94 173.869 157.405 173.891 165.076 169.477L348.927 63.7601C350.733 62.7214 351.729 61.3815 351.732 59.9855C351.735 58.5908 350.743 57.2455 348.939 56.2015L272.569 11.9308C264.916 7.49478 252.449 7.47346 244.78 11.8828L60.9307 117.6ZM151.235 174.404C145.881 174.404 140.527 173.223 136.456 170.863L60.0854 126.592C57.7494 125.239 56.4654 123.384 56.468 121.372C56.472 119.36 57.7627 117.511 60.104 116.164L60.5174 116.883L60.104 116.164L243.955 10.4468C252.08 5.77347 265.289 5.79611 273.4 10.4975L349.769 54.7681C352.107 56.1228 353.391 57.9774 353.388 59.9894C353.384 62.0001 352.093 63.8494 349.752 65.1961L165.901 170.913C161.853 173.241 156.545 174.404 151.235 174.404Z" fill="#B9E2B8"/>
<path d="M60.5747 119.369L244.425 13.6522C252.303 9.12149 265.181 9.14414 273.043 13.7015L349.412 57.9721C350.913 58.8428 351.875 59.9068 352.321 61.0255C353.147 58.9588 352.185 56.6948 349.412 55.0881L273.043 10.8175C265.181 6.26015 252.303 6.23747 244.425 10.7668L60.5747 116.485C57.7907 118.087 56.8227 120.352 57.6493 122.425C58.0973 121.303 59.0653 120.237 60.5747 119.369Z" fill="#B9E2B8"/>
<path d="M252.717 12.0322H251.827V8.85352H252.717V12.0322Z" fill="#22B022"/>
<path d="M346.069 57.3641H345.179V54.1855H346.069V57.3641Z" fill="#22B022"/>
<path d="M65.4013 117.656H64.5093V114.479H65.4013V117.656Z" fill="#22B022"/>
<path d="M141.473 180.629H140.583V178.191H141.473V180.629Z" fill="#22B022"/>
<path d="M166.275 178.917H165.384V176.479H166.275V178.917Z" fill="#22B022"/>
<path d="M57.8107 133.1H56.9187V130.66H57.8107V133.1Z" fill="#22B022"/>
<path d="M347.408 74.8015H346.516V72.3628H347.408V74.8015Z" fill="#22B022"/>
<path d="M128.265 174.593L122.868 171.471L123.313 170.699L128.711 173.821L128.265 174.593Z" fill="#22B022"/>
<path d="M282.613 112.56L282.161 111.792L286.297 109.36L286.751 110.128L282.613 112.56Z" fill="#22B022"/>
<path d="M209.712 154.388L209.267 153.616L244.176 133.468L244.621 134.24L209.712 154.388Z" fill="#22B022"/>
<path d="M156.624 181.896L156.535 181.008C164.088 180.255 171.197 175.628 171.268 175.583L175.423 173.137L175.876 173.907L171.74 176.339C171.461 176.523 164.392 181.12 156.624 181.896Z" fill="#22B022"/>
<path d="M265.409 12.0442H264.519V8.86551H265.409V12.0442Z" fill="#22B022"/>
<path d="M181.755 130.576L175.663 130.873C174.549 130.927 173.569 130.449 173.476 129.807L173.188 127.843C173.093 127.199 173.92 126.633 175.035 126.58L181.127 126.283C181.471 126.265 181.675 126.039 181.476 125.875C179.74 124.441 176.773 123.564 173.537 123.721C169.788 123.904 166.797 125.423 165.828 127.395L113.941 129.092C112.2 129.149 110.883 130.024 111.029 131.028C111.171 131.993 112.617 132.717 114.292 132.663L166.349 130.96C167.879 132.812 171.268 134.019 175.017 133.836C178.253 133.677 180.923 132.524 182.219 130.944C182.365 130.763 182.1 130.559 181.755 130.576Z" fill="#22B022"/>
<path d="M166.643 130.314L166.841 130.555C168.285 132.303 171.551 133.376 174.985 133.199C177.427 133.08 179.625 132.355 181.001 131.25L175.693 131.51C174.216 131.567 172.992 130.89 172.845 129.9L172.557 127.935C172.501 127.552 172.617 127.163 172.884 126.84C173.308 126.323 174.1 125.988 175.003 125.943L180.084 125.696C178.383 124.74 175.995 124.234 173.568 124.358C170.173 124.523 167.293 125.856 166.399 127.676L166.231 128.019L113.961 129.728C112.828 129.766 112.096 130.174 111.813 130.51C111.629 130.731 111.653 130.886 111.66 130.936C111.74 131.488 112.897 132.056 114.271 132.027L166.643 130.314ZM174.264 134.491C170.848 134.491 167.731 133.399 166.069 131.607L114.313 133.299C112.273 133.386 110.592 132.43 110.399 131.122C110.325 130.616 110.477 130.123 110.836 129.694C111.448 128.962 112.601 128.499 113.92 128.456L165.444 126.771C166.701 124.698 169.805 123.266 173.505 123.086C176.813 122.924 179.944 123.784 181.881 125.383C182.155 125.608 182.256 125.947 182.151 126.266C182.025 126.639 181.636 126.896 181.159 126.919L175.065 127.216C174.459 127.246 174.027 127.455 173.868 127.648L174.107 129.715C174.131 129.887 174.695 130.275 175.632 130.236L181.724 129.939C182.221 129.916 182.633 130.128 182.811 130.482C182.953 130.764 182.916 131.095 182.712 131.346C181.243 133.142 178.377 134.31 175.048 134.472C174.785 134.484 174.523 134.491 174.264 134.491Z" fill="white"/>
<path d="M142.431 142.459L114.455 126.307C109.781 123.608 110.367 118.895 115.764 115.779C121.161 112.663 129.327 112.324 134.001 115.023L161.976 131.175C166.651 133.874 166.064 138.587 160.667 141.703C155.269 144.819 147.105 145.158 142.431 142.459Z" fill="#22B022"/>
<path d="M142.749 141.907C147.239 144.5 155.135 144.16 160.348 141.152C162.984 139.63 164.495 137.66 164.495 135.747C164.495 134.211 163.487 132.783 161.657 131.726L133.683 115.575C129.191 112.982 121.297 113.32 116.083 116.331C113.448 117.852 111.936 119.822 111.936 121.735C111.936 123.272 112.943 124.7 114.773 125.756L142.749 141.907ZM150.348 144.904C147.263 144.904 144.313 144.282 142.112 143.011L114.136 126.859C111.896 125.566 110.663 123.746 110.663 121.735C110.663 119.355 112.405 116.983 115.447 115.227C121.012 112.015 129.479 111.676 134.32 114.471L162.295 130.623C164.535 131.916 165.769 133.736 165.769 135.747C165.769 138.127 164.025 140.5 160.985 142.255C157.949 144.007 154.051 144.904 150.348 144.904Z" fill="white"/>
<path d="M130.08 120.895C130.321 121.033 130.517 121.169 130.669 121.304L129.792 121.677C129.617 121.519 129.445 121.391 129.271 121.292C128.833 121.039 128.279 120.924 127.612 120.951C126.943 120.976 126.341 121.143 125.811 121.449L122.897 123.131L122.077 122.656L127.504 119.521L128.183 119.913L127.272 120.548L127.312 120.571C127.867 120.484 128.38 120.467 128.857 120.52C129.331 120.573 129.739 120.699 130.08 120.895Z" fill="white"/>
<path d="M133.124 123.448C132.689 123.196 132.2 123.077 131.657 123.092C131.113 123.105 130.568 123.245 130.02 123.508L132.859 125.147C133.376 124.847 133.657 124.551 133.703 124.259C133.745 123.965 133.555 123.696 133.124 123.448ZM128.411 126.427C127.608 125.964 127.219 125.457 127.243 124.907C127.269 124.357 127.716 123.832 128.584 123.331C129.459 122.825 130.371 122.549 131.316 122.5C132.261 122.451 133.097 122.636 133.824 123.056C134.504 123.449 134.82 123.889 134.767 124.376C134.715 124.863 134.323 125.317 133.591 125.741L133.071 126.041L129.332 123.881C128.711 124.26 128.388 124.632 128.363 124.999C128.339 125.365 128.604 125.709 129.159 126.029C129.741 126.367 130.443 126.631 131.257 126.819L130.525 127.241C130.109 127.147 129.745 127.04 129.431 126.921C129.117 126.804 128.777 126.639 128.411 126.427Z" fill="white"/>
<path d="M139.143 126.933C138.588 126.613 138.035 126.471 137.479 126.504C136.923 126.539 136.308 126.748 135.632 127.131L135.449 127.236C134.685 127.676 134.267 128.065 134.193 128.401C134.119 128.737 134.361 129.068 134.921 129.392C135.392 129.664 135.949 129.765 136.593 129.7C137.24 129.635 137.896 129.408 138.563 129.023C139.24 128.633 139.627 128.256 139.721 127.893C139.819 127.532 139.624 127.212 139.143 126.933ZM134.333 129.847C133.98 129.643 133.723 129.419 133.56 129.175C133.4 128.931 133.355 128.673 133.428 128.403L133.368 128.369C133.091 128.575 132.811 128.76 132.525 128.923L130.292 130.212L129.471 129.737L137.335 125.197L138.004 125.584L137.375 126.079L137.415 126.101C137.923 126.051 138.384 126.069 138.796 126.156C139.208 126.241 139.596 126.389 139.96 126.599C140.679 127.015 140.989 127.477 140.888 127.987C140.787 128.496 140.293 129.008 139.405 129.521C138.515 130.036 137.623 130.32 136.731 130.376C135.84 130.432 135.04 130.255 134.333 129.847Z" fill="white"/>
<path d="M140.181 132.44C140.693 132.736 141.236 132.887 141.809 132.894C142.383 132.9 142.923 132.758 143.428 132.467L143.919 132.183L143.061 131.728C142.383 131.364 141.811 131.151 141.343 131.088C140.873 131.026 140.449 131.103 140.069 131.323C139.772 131.494 139.633 131.676 139.659 131.87C139.685 132.063 139.857 132.254 140.181 132.44ZM141.46 133.847L142.069 133.307L142.029 133.284C141.417 133.323 140.92 133.302 140.529 133.215C140.14 133.13 139.744 132.971 139.34 132.738C138.801 132.427 138.52 132.104 138.492 131.767C138.464 131.431 138.705 131.115 139.217 130.819C140.313 130.187 141.765 130.36 143.571 131.343L144.52 131.858L144.857 131.663C145.284 131.418 145.507 131.183 145.525 130.959C145.545 130.736 145.355 130.51 144.952 130.276C144.5 130.015 143.849 129.8 143.001 129.63L143.379 129.122C143.791 129.191 144.197 129.295 144.597 129.431C144.999 129.567 145.359 129.728 145.68 129.914C146.327 130.287 146.663 130.647 146.688 130.992C146.712 131.339 146.408 131.695 145.775 132.06L142.069 134.199L141.46 133.847Z" fill="white"/>
<path d="M150.593 131.153C150.78 131.045 150.965 130.992 151.144 130.993C151.324 130.997 151.483 131.039 151.621 131.119C151.755 131.196 151.823 131.287 151.831 131.393C151.837 131.5 151.748 131.607 151.563 131.715C151.379 131.82 151.192 131.872 151.005 131.869C150.819 131.865 150.66 131.828 150.527 131.751C150.388 131.671 150.319 131.577 150.316 131.472C150.316 131.367 150.408 131.26 150.593 131.153ZM144.585 135.651L143.763 135.176L149.191 132.043L150.013 132.517L144.585 135.651Z" fill="white"/>
<path d="M154.331 134.896C154.572 135.036 154.769 135.172 154.921 135.305L154.045 135.68C153.868 135.521 153.696 135.393 153.525 135.293C153.087 135.041 152.532 134.927 151.863 134.952C151.195 134.977 150.595 135.144 150.064 135.451L147.152 137.132L146.329 136.657L151.757 133.524L152.435 133.916L151.524 134.551L151.564 134.573C152.119 134.485 152.635 134.468 153.109 134.521C153.584 134.576 153.992 134.7 154.331 134.896Z" fill="white"/>
<path d="M268.852 71.9108L265.192 64.0242C264.579 62.7042 262.229 61.9215 259.943 62.2748L255.779 62.9188C254.981 62.3175 254.115 61.7375 253.161 61.1869C252.208 60.6362 251.203 60.1362 250.161 59.6762L251.277 57.2722C251.889 55.9522 250.533 54.5948 248.247 54.2415L234.587 52.1282C232.301 51.7748 229.952 52.5575 229.339 53.8775L228.223 56.2828C225.601 56.4762 223.017 56.8708 220.543 57.4655L217.5 55.7095C215.827 54.7428 213.113 54.7428 211.44 55.7095L201.44 61.4828C199.767 62.4482 199.767 64.0148 201.44 64.9815L204.483 66.7375C203.452 68.1668 202.769 69.6588 202.433 71.1722L198.268 71.8162C195.983 72.1695 194.625 73.5268 195.239 74.8468L198.899 82.7335C199.511 84.0522 201.86 84.8362 204.147 84.4828L208.311 83.8375C209.108 84.4402 209.975 85.0202 210.928 85.5708C211.881 86.1202 212.887 86.6215 213.929 87.0815L212.813 89.4855C212.2 90.8055 213.557 92.1628 215.843 92.5162L229.503 94.6295C231.788 94.9828 234.139 94.1988 234.751 92.8802L235.867 90.4748C238.488 90.2802 241.072 89.8868 243.547 89.2922L246.589 91.0482C248.263 92.0148 250.976 92.0148 252.649 91.0482L262.649 85.2748C264.323 84.3082 264.323 82.7428 262.649 81.7762L259.607 80.0189C260.639 78.5908 261.32 77.0989 261.656 75.5855L265.821 74.9415C268.108 74.5868 269.464 73.2308 268.852 71.9108Z" fill="#22B022"/>
<path d="M208.48 83.1682L208.695 83.3295C209.505 83.9402 210.364 84.5095 211.247 85.0188C212.133 85.5295 213.121 86.0282 214.187 86.4988L214.78 86.7615L213.391 89.7535C213.265 90.0242 213.275 90.2855 213.417 90.5535C213.683 91.0508 214.485 91.6615 215.94 91.8868L229.599 93.9988C231.764 94.3362 233.745 93.5362 234.173 92.6122L235.447 89.8668L235.82 89.8402C238.433 89.6468 240.984 89.2535 243.399 88.6722L243.645 88.6122L246.908 90.4962C248.379 91.3468 250.863 91.3455 252.332 90.4962L262.331 84.7228C262.925 84.3802 263.268 83.9428 263.268 83.5255C263.268 83.1082 262.925 82.6708 262.331 82.3282L258.677 80.2189L259.091 79.6469C260.059 78.3042 260.712 76.8909 261.035 75.4469L261.129 75.0228L265.725 74.3122C267.179 74.0869 267.981 73.4762 268.247 72.9789C268.389 72.7108 268.399 72.4495 268.273 72.1802V72.1789L264.613 64.2935C264.184 63.3682 262.204 62.5695 260.041 62.9042L255.609 63.5895L255.396 63.4282C254.584 62.8175 253.727 62.2482 252.843 61.7388C251.953 61.2242 250.964 60.7268 249.903 60.2588L249.309 59.9962L250.7 57.0028C250.825 56.7335 250.815 56.4722 250.672 56.2042C250.407 55.7068 249.604 55.0962 248.149 54.8708L234.489 52.7588C232.324 52.4215 230.345 53.2215 229.916 54.1455L228.644 56.8908L228.271 56.9175C225.656 57.1122 223.105 57.5042 220.692 58.0855L220.444 58.1455L217.181 56.2602C215.709 55.4122 213.228 55.4135 211.759 56.2602L201.759 62.0348C201.164 62.3775 200.823 62.8148 200.823 63.2322C200.823 63.6495 201.164 64.0855 201.759 64.4295L205.412 66.5388L205 67.1108C204.031 68.4535 203.376 69.8668 203.055 71.3109L202.96 71.7348L198.365 72.4455C196.911 72.6709 196.108 73.2829 195.843 73.7789C195.699 74.0469 195.691 74.3082 195.815 74.5788L199.476 82.4642C199.905 83.3895 201.887 84.1855 204.049 83.8535L208.48 83.1682ZM230.619 95.3522C230.217 95.3522 229.811 95.3215 229.405 95.2588L215.745 93.1455C214.117 92.8935 212.827 92.1495 212.295 91.1548C211.964 90.5362 211.943 89.8482 212.236 89.2175L213.081 87.3975C212.196 86.9868 211.368 86.5602 210.611 86.1215C209.76 85.6308 208.932 85.0895 208.144 84.5082L204.243 85.1122C201.661 85.5148 199.056 84.5855 198.321 83.0002L194.66 75.1149C194.367 74.4842 194.389 73.7962 194.72 73.1775C195.252 72.1828 196.543 71.4389 198.171 71.1869L201.916 70.6082C202.247 69.3508 202.801 68.1229 203.569 66.9455L201.121 65.5335C200.107 64.9468 199.548 64.1295 199.548 63.2322C199.548 62.3335 200.108 61.5175 201.121 60.9308L211.121 55.1575C212.999 54.0735 215.939 54.0735 217.819 55.1575L220.643 56.7882C222.932 56.2508 225.339 55.8775 227.803 55.6762L228.761 53.6095C229.496 52.0255 232.108 51.0988 234.684 51.4988L248.343 53.6122C249.973 53.8642 251.263 54.6082 251.796 55.6028C252.127 56.2215 252.148 56.9095 251.853 57.5402L251.009 59.3602C251.889 59.7682 252.719 60.1962 253.48 60.6348C254.329 61.1268 255.159 61.6682 255.945 62.2495L259.847 61.6455C262.436 61.2482 265.036 62.1735 265.768 63.7562L269.428 71.6415C269.723 72.2735 269.701 72.9602 269.369 73.5802C268.839 74.5749 267.549 75.3188 265.919 75.5708L262.175 76.1495C261.844 77.4069 261.289 78.6348 260.521 79.8122L262.968 81.2242C263.983 81.8108 264.541 82.6282 264.541 83.5255C264.541 84.4228 263.983 85.2402 262.968 85.8268L252.968 91.6002C251.092 92.6842 248.149 92.6855 246.271 91.6002L243.448 89.9695C241.156 90.5068 238.751 90.8815 236.287 91.0815L235.328 93.1482C234.709 94.4828 232.763 95.3508 230.619 95.3522Z" fill="white"/>
<path d="M244.847 80.7695C237.776 84.8521 226.313 84.8521 219.243 80.7695C212.173 76.6881 212.173 70.0695 219.244 65.9881C226.313 61.9055 237.776 61.9055 244.847 65.9881C251.916 70.0695 251.916 76.6881 244.847 80.7695Z" fill="#22B022"/>
<path d="M232.045 63.5588C227.524 63.5588 223.003 64.5521 219.563 66.5401C216.348 68.3948 214.577 70.8242 214.577 73.3788C214.577 75.9335 216.348 78.3628 219.563 80.2175C226.444 84.1922 237.643 84.1922 244.528 80.2175C247.741 78.3628 249.511 75.9335 249.511 73.3788C249.511 70.8242 247.741 68.3948 244.528 66.5401C241.087 64.5521 236.565 63.5588 232.045 63.5588ZM232.045 84.4535C227.293 84.4535 222.543 83.4095 218.925 81.3215C215.3 79.2295 213.304 76.4082 213.304 73.3788C213.304 70.3495 215.3 67.5281 218.925 65.4361C226.16 61.2588 237.931 61.2588 245.164 65.4361C248.789 67.5281 250.785 70.3495 250.785 73.3788C250.785 76.4082 248.789 79.2295 245.164 81.3215C241.548 83.4095 236.795 84.4535 232.045 84.4535Z" fill="white"/>
<path d="M259.667 38.1202L258.492 35.5869C258.368 35.3202 257.892 35.1615 257.429 35.2335L254.945 35.6175C254.479 35.1709 253.913 34.7482 253.244 34.3628C252.576 33.9762 251.845 33.6495 251.071 33.3802L251.736 31.9468C251.86 31.6788 251.585 31.4042 251.123 31.3335L246.736 30.6535C246.273 30.5829 245.799 30.7415 245.675 31.0082L245.008 32.4455C243.18 32.4642 241.36 32.7362 239.716 33.2628L237.897 32.2108C237.559 32.0162 237.009 32.0162 236.671 32.2108L233.459 34.0655C233.12 34.2615 233.12 34.5775 233.459 34.7735L235.279 35.8242C234.368 36.7735 233.897 37.8242 233.864 38.8788L231.375 39.2642C230.912 39.3348 230.639 39.6095 230.763 39.8775L231.937 42.4095C232.061 42.6775 232.537 42.8348 233 42.7642L235.484 42.3802C235.951 42.8268 236.516 43.2495 237.185 43.6348C237.853 44.0202 238.584 44.3469 239.359 44.6162L238.693 46.0509C238.569 46.3189 238.844 46.5922 239.307 46.6642L243.693 47.3428C244.156 47.4135 244.631 47.2562 244.755 46.9895L245.421 45.5522C247.249 45.5322 249.069 45.2602 250.713 44.7348L252.532 45.7855C252.871 45.9815 253.42 45.9815 253.759 45.7855L256.971 43.9308C257.308 43.7362 257.308 43.4188 256.971 43.2228L255.151 42.1735C256.06 41.2242 256.532 40.1735 256.565 39.1189L259.055 38.7335C259.516 38.6615 259.791 38.3869 259.667 38.1202Z" fill="#22B022"/>
<path d="M239.404 46.0348L243.789 46.7135C244 46.7455 244.179 46.6908 244.223 46.6548L245.015 44.9188L245.416 44.9148C247.204 44.8962 248.968 44.6242 250.519 44.1282L250.788 44.0428L252.851 45.2335C252.995 45.3175 253.297 45.3148 253.439 45.2348L256.309 43.5775L254.128 42.3188L254.692 41.7322C255.473 40.9175 255.901 40.0068 255.929 39.0975L255.947 38.5695L258.957 38.1028L257.915 35.8548C257.915 35.8801 257.815 35.8535 257.671 35.8522C257.627 35.8522 257.577 35.8548 257.527 35.8628L254.732 36.2948L254.505 36.0775C254.065 35.6562 253.535 35.2655 252.927 34.9135C252.309 34.5575 251.615 34.2442 250.861 33.9815L250.197 33.7508L251.025 31.9628L246.639 31.2842C246.429 31.2482 246.251 31.3068 246.207 31.3428L245.416 33.0775L245.015 33.0815C243.227 33.1002 241.463 33.3735 239.911 33.8682L239.643 33.9548L237.579 32.7642C237.439 32.6828 237.128 32.6828 236.989 32.7642L234.121 34.4188L236.303 35.6788L235.739 36.2655C234.956 37.0802 234.528 37.9908 234.501 38.8988L234.484 39.4282L231.473 39.8935L232.515 42.1415C232.515 42.1202 232.616 42.1442 232.756 42.1442C232.803 42.1442 232.851 42.1428 232.903 42.1335L235.699 41.7015L235.925 41.9188C236.365 42.3415 236.897 42.7335 237.503 43.0828C238.121 43.4388 238.815 43.7535 239.568 44.0148L240.233 44.2468L239.404 46.0348ZM243.912 47.9962C243.804 47.9962 243.697 47.9882 243.596 47.9722L239.209 47.2935C238.715 47.2175 238.325 46.9748 238.14 46.6282C237.997 46.3615 237.989 46.0535 238.116 45.7815L238.492 44.9722C237.912 44.7388 237.367 44.4762 236.865 44.1855C236.273 43.8442 235.741 43.4655 235.28 43.0548L233.096 43.3935C232.444 43.4935 231.637 43.2802 231.36 42.6762L230.185 40.1455C230.059 39.8735 230.067 39.5655 230.209 39.3002C230.395 38.9535 230.785 38.7108 231.279 38.6348L233.276 38.3255C233.4 37.5162 233.745 36.7255 234.297 35.9935L233.141 35.3255C232.777 35.1148 232.569 34.7855 232.569 34.4202C232.569 34.0535 232.777 33.7242 233.141 33.5135L236.352 31.6602C236.881 31.3535 237.683 31.3535 238.216 31.6602L239.795 32.5708C241.279 32.1268 242.925 31.8682 244.597 31.8162L245.097 30.7402C245.372 30.1388 246.18 29.9242 246.833 30.0242L251.22 30.7042C251.715 30.7802 252.104 31.0228 252.289 31.3695C252.431 31.6348 252.44 31.9428 252.313 32.2148L251.937 33.0255C252.517 33.2588 253.061 33.5215 253.563 33.8108C254.156 34.1535 254.689 34.5322 255.151 34.9415L257.332 34.6042C257.984 34.5042 258.789 34.7175 259.069 35.3188L260.247 37.8535C260.372 38.1255 260.361 38.4335 260.22 38.6988C260.035 39.0442 259.645 39.2855 259.152 39.3628L257.153 39.6708C257.029 40.4815 256.683 41.2722 256.131 42.0042L257.289 42.6708C257.653 42.8828 257.861 43.2122 257.861 43.5775C257.861 43.9428 257.653 44.2722 257.291 44.4828L254.077 46.3375C253.537 46.6495 252.753 46.6495 252.213 46.3375L250.636 45.4255C249.152 45.8708 247.505 46.1295 245.833 46.1802L245.332 47.2575C245.096 47.7655 244.487 47.9962 243.912 47.9962Z" fill="white"/>
<path d="M248.176 40.7095C246.541 41.6535 243.888 41.6535 242.252 40.7095C240.617 39.7641 240.617 38.2321 242.252 37.2881C243.888 36.3441 246.541 36.3441 248.176 37.2881C249.812 38.2321 249.812 39.7641 248.176 40.7095Z" fill="#22B022"/>
<path d="M245.215 37.2188C244.251 37.2188 243.288 37.4255 242.571 37.8402C241.993 38.1735 241.663 38.5948 241.663 38.9988C241.663 39.4015 241.993 39.8228 242.571 40.1562C244.005 40.9855 246.427 40.9855 247.859 40.1562C248.435 39.8228 248.767 39.4015 248.767 38.9988C248.767 38.5948 248.435 38.1735 247.859 37.8402C247.141 37.4268 246.177 37.2188 245.215 37.2188ZM245.215 42.0562C244.033 42.0562 242.853 41.7908 241.933 41.2602C240.937 40.6855 240.389 39.8815 240.389 38.9988C240.389 38.1148 240.937 37.3122 241.933 36.7375C243.772 35.6748 246.656 35.6748 248.495 36.7375C249.492 37.3122 250.04 38.1148 250.04 38.9988C250.04 39.8815 249.492 40.6855 248.495 41.2602C247.576 41.7908 246.395 42.0562 245.215 42.0562Z" fill="white"/>
<path d="M237.437 108.035L236.333 105.655C236.217 105.404 235.771 105.255 235.336 105.323L233.001 105.684C232.563 105.264 232.032 104.867 231.404 104.504C230.776 104.141 230.089 103.835 229.361 103.581L229.987 102.235C230.104 101.983 229.845 101.725 229.411 101.659L225.289 101.02C224.856 100.953 224.409 101.103 224.292 101.353L223.665 102.703C221.949 102.721 220.239 102.977 218.695 103.471L216.985 102.484C216.668 102.3 216.152 102.3 215.833 102.484L212.817 104.225C212.499 104.409 212.499 104.707 212.817 104.891L214.527 105.877C213.671 106.769 213.228 107.756 213.196 108.747L210.859 109.109C210.424 109.176 210.167 109.435 210.283 109.685L211.387 112.064C211.504 112.315 211.951 112.464 212.385 112.397L214.719 112.036C215.157 112.456 215.689 112.852 216.317 113.215C216.944 113.577 217.632 113.884 218.359 114.137L217.733 115.485C217.617 115.736 217.875 115.993 218.309 116.061L222.431 116.699C222.865 116.765 223.312 116.617 223.428 116.365L224.055 115.016C225.772 114.999 227.481 114.743 229.025 114.248L230.735 115.236C231.053 115.419 231.569 115.419 231.887 115.236L234.904 113.493C235.223 113.311 235.223 113.012 234.904 112.829L233.195 111.841C234.049 110.951 234.493 109.963 234.524 108.972L236.861 108.611C237.296 108.543 237.555 108.285 237.437 108.035Z" fill="#22B022"/>
<path d="M218.457 115.439L222.528 116.069C222.712 116.097 222.865 116.052 222.905 116.022L223.645 114.384L224.048 114.379C225.723 114.363 227.377 114.107 228.832 113.642L229.1 113.556L231.053 114.684C231.172 114.752 231.448 114.753 231.568 114.684L234.205 113.162L232.172 111.988L232.735 111.401C233.463 110.641 233.861 109.795 233.888 108.952L233.905 108.423L236.713 107.988L235.756 105.923C235.764 105.958 235.689 105.942 235.572 105.942C235.529 105.942 235.483 105.944 235.432 105.952L232.788 106.36L232.561 106.143C232.152 105.751 231.656 105.386 231.085 105.055C230.508 104.723 229.857 104.428 229.152 104.184L228.487 103.952L229.263 102.28L225.193 101.651C225.011 101.623 224.856 101.668 224.816 101.697L224.076 103.335L223.672 103.34C221.999 103.358 220.344 103.612 218.889 104.078L218.62 104.163L216.668 103.035C216.549 102.964 216.273 102.965 216.152 103.035L213.515 104.558L215.549 105.732L214.985 106.319C214.257 107.076 213.86 107.923 213.833 108.767L213.816 109.296L211.007 109.731L211.965 111.796C211.956 111.761 212.032 111.776 212.148 111.778C212.191 111.778 212.237 111.775 212.287 111.767L214.933 111.359L215.16 111.576C215.572 111.97 216.067 112.336 216.635 112.663C217.213 112.997 217.864 113.291 218.568 113.536L219.233 113.767L218.457 115.439ZM222.635 117.351C222.533 117.351 222.431 117.343 222.335 117.328L218.212 116.691C217.736 116.616 217.359 116.382 217.18 116.046C217.04 115.784 217.032 115.481 217.156 115.216L217.492 114.492C216.961 114.276 216.46 114.032 215.999 113.767C215.445 113.448 214.947 113.094 214.513 112.712L212.481 113.027C211.855 113.122 211.079 112.916 210.809 112.332L209.705 109.953C209.581 109.688 209.591 109.386 209.729 109.126C209.908 108.788 210.285 108.554 210.761 108.479L212.611 108.194C212.731 107.448 213.047 106.723 213.548 106.048L212.499 105.442C212.144 105.238 211.941 104.916 211.941 104.558C211.941 104.2 212.144 103.878 212.499 103.674L215.516 101.932C216.033 101.633 216.784 101.633 217.304 101.932L218.772 102.78C220.16 102.365 221.696 102.124 223.256 102.075L223.715 101.085C223.987 100.501 224.765 100.298 225.387 100.391L229.508 101.028C229.984 101.103 230.359 101.338 230.54 101.672C230.679 101.932 230.689 102.235 230.565 102.501L230.229 103.228C230.76 103.444 231.26 103.685 231.723 103.952C232.277 104.273 232.775 104.627 233.207 105.007L235.239 104.694C235.863 104.598 236.641 104.804 236.912 105.388L238.015 107.767C238.14 108.032 238.131 108.334 237.993 108.594C237.812 108.93 237.436 109.166 236.96 109.24L235.111 109.527C234.991 110.271 234.673 110.996 234.172 111.671L235.223 112.276C235.577 112.482 235.78 112.804 235.78 113.162C235.78 113.519 235.577 113.84 235.223 114.046L232.205 115.788C231.688 116.086 230.936 116.086 230.416 115.788L228.948 114.939C227.561 115.354 226.025 115.595 224.465 115.644L224.007 116.633C223.777 117.127 223.189 117.351 222.635 117.351Z" fill="white"/>
<path d="M226.643 110.467C225.107 111.354 222.615 111.354 221.077 110.467C219.541 109.579 219.541 108.14 221.077 107.254C222.615 106.366 225.107 106.366 226.643 107.254C228.18 108.14 228.18 109.579 226.643 110.467Z" fill="#22B022"/>
<path d="M223.86 107.227C222.963 107.227 222.064 107.419 221.396 107.805C220.867 108.111 220.563 108.496 220.563 108.859C220.563 109.224 220.867 109.608 221.396 109.915C222.732 110.685 224.989 110.685 226.325 109.915C226.855 109.608 227.159 109.224 227.159 108.859C227.159 108.496 226.855 108.111 226.325 107.805C225.657 107.419 224.759 107.227 223.86 107.227ZM223.86 111.771C222.744 111.771 221.628 111.52 220.759 111.017C219.811 110.471 219.288 109.704 219.288 108.859C219.288 108.016 219.811 107.249 220.759 106.701C222.499 105.697 225.223 105.697 226.961 106.701C227.909 107.249 228.432 108.016 228.432 108.859C228.432 109.704 227.909 110.471 226.961 111.017C226.092 111.52 224.976 111.771 223.86 111.771Z" fill="white"/>
<path d="M176.453 57.0655C176.307 56.7468 176.043 56.4654 175.704 56.2254L129.816 82.6121C130.252 82.8321 130.769 83.0054 131.365 83.0974L143.847 85.0281C145.935 85.3508 148.081 84.6361 148.641 83.4294L149.661 81.2321C152.056 81.0548 154.417 80.6961 156.677 80.1521L159.457 81.7561C160.987 82.6388 163.465 82.6388 164.995 81.7561L174.131 76.4815C175.66 75.5988 175.66 74.1681 174.131 73.2841L171.351 71.6801C172.293 70.3748 172.916 69.0108 173.224 67.6281L177.029 67.0401C179.119 66.7161 180.357 65.4775 179.797 64.2708L176.453 57.0655Z" fill="#22B022"/>
<path d="M131.369 82.4521C131.401 82.4588 131.432 82.4628 131.464 82.4681L143.943 84.3988C145.903 84.7028 147.679 83.9881 148.064 83.1615L149.24 80.6254L149.613 80.5975C152.001 80.4201 154.327 80.0615 156.528 79.5321L156.776 79.4721L159.776 81.2055C161.107 81.9721 163.349 81.9721 164.676 81.2055L173.813 75.9295C174.339 75.6255 174.641 75.2441 174.641 74.8828C174.641 74.5215 174.339 74.1401 173.813 73.8361L170.421 71.8788L170.835 71.3068C171.716 70.0868 172.311 68.8014 172.603 67.4908L172.697 67.0655L176.933 66.4108C178.011 66.2441 178.9 65.7774 179.197 65.2214C179.319 64.9921 179.327 64.7695 179.22 64.5388L175.876 57.3348C175.824 57.2228 175.744 57.1095 175.636 57.0001L131.369 82.4521ZM144.86 85.7428C144.495 85.7428 144.121 85.7161 143.749 85.6575L131.269 83.7268C130.64 83.6294 130.055 83.4468 129.528 83.1801L128.473 82.6481L175.74 55.4708L176.072 55.7068C176.52 56.0241 176.843 56.3908 177.031 56.7975L180.375 64.0028C180.649 64.5961 180.631 65.2414 180.32 65.8228C179.825 66.7468 178.632 67.4361 177.127 67.6695L173.741 68.1934C173.441 69.3174 172.945 70.4161 172.264 71.4721L174.449 72.7335C175.393 73.2788 175.915 74.0428 175.915 74.8828C175.915 75.7241 175.393 76.4881 174.449 77.0335L165.313 82.3081C163.581 83.3068 160.871 83.3068 159.139 82.3081L156.577 80.8295C154.5 81.3161 152.319 81.6548 150.081 81.8388L149.219 83.6975C148.643 84.9361 146.841 85.7428 144.86 85.7428Z" fill="white"/>
<path d="M143.067 74.9922C148.264 75.5628 153.843 74.6882 157.865 72.3655C161.871 70.0535 163.387 66.8508 162.425 63.8615L143.067 74.9922Z" fill="#22B022"/>
<path d="M145.188 74.5068C149.744 74.6682 154.272 73.7028 157.547 71.8135C160.788 69.9415 162.404 67.3815 162.004 64.8375L145.188 74.5068ZM146.164 75.7975C145.112 75.7975 144.053 75.7415 142.997 75.6255L141.059 75.4122L162.791 62.9162L163.031 63.6655C164.127 67.0735 162.315 70.5308 158.184 72.9175C154.957 74.7802 150.624 75.7975 146.164 75.7975Z" fill="white"/>
<path d="M285.82 96.8228C285.824 96.8308 285.831 96.8388 285.835 96.8468L329.967 71.5055C329.893 71.4921 329.828 71.4708 329.752 71.4588L317.592 69.5775C315.557 69.2628 313.465 69.9601 312.92 71.1348L311.927 73.2761C309.593 73.4495 307.292 73.7988 305.089 74.3295L302.38 72.7655C300.891 71.9055 298.475 71.9055 296.985 72.7655L288.083 77.9055C286.593 78.7655 286.593 80.1602 288.083 81.0202L290.792 82.5842C289.873 83.8562 289.267 85.1841 288.967 86.5308L285.259 87.1055C283.224 87.4201 282.016 88.6281 282.561 89.8028L285.82 96.8228Z" fill="#22B022"/>
<path d="M299.684 72.7588C298.815 72.7588 297.948 72.9455 297.304 73.3175L288.401 78.4575C287.893 78.7495 287.603 79.1161 287.603 79.4628C287.603 79.8095 287.893 80.1761 288.401 80.4681L291.721 82.3855L291.308 82.9561C290.452 84.1441 289.873 85.3935 289.589 86.6695L289.495 87.0948L285.356 87.7348C284.311 87.8961 283.451 88.3468 283.163 88.8841C283.043 89.1055 283.037 89.3121 283.139 89.5348L286.117 95.9495L328.088 71.8508L317.496 70.2068C315.6 69.9108 313.869 70.6015 313.497 71.4028L312.347 73.8842L311.973 73.9108C309.648 74.0841 307.381 74.4322 305.239 74.9495L304.991 75.0081L302.063 73.3175C301.417 72.9455 300.551 72.7588 299.684 72.7588ZM285.549 97.7455L285.256 97.1135L285.82 96.8228L285.243 97.0908L281.984 90.0708C281.715 89.4881 281.733 88.8535 282.039 88.2828C282.523 87.3788 283.691 86.7028 285.161 86.4748L288.449 85.9668C288.743 84.8788 289.221 83.8148 289.879 82.7921L287.764 81.5721C286.839 81.0375 286.329 80.2881 286.329 79.4628C286.329 78.6375 286.839 77.8882 287.764 77.3535L296.667 72.2135C298.357 71.2388 301.005 71.2375 302.699 72.2135L305.188 73.6522C307.209 73.1788 309.331 72.8481 311.505 72.6708L312.343 70.8668C313.008 69.4308 315.363 68.5922 317.689 68.9482L330.023 70.8655L331.576 71.2415L330.284 72.0588L285.549 97.7455Z" fill="white"/>
<path d="M316.527 79.2241C312.012 79.0308 307.384 79.9228 303.932 81.9162C300.503 83.8962 298.957 86.5455 299.264 89.1348L316.527 79.2241Z" fill="#22B022"/>
<path d="M314.139 79.8601C310.416 80.0201 306.905 80.9348 304.251 82.4682C301.623 83.9855 300.081 85.9735 299.885 88.0442L314.139 79.8601ZM298.745 90.1682L298.632 89.2108C298.281 86.2548 300.096 83.3948 303.613 81.3641C307.027 79.3935 311.741 78.3855 316.553 78.5881L318.749 78.6815L298.745 90.1682Z" fill="white"/>
<path d="M96.2306 168.821C96.0879 168.821 95.9719 168.936 95.9719 169.08V171.371C95.9719 171.515 96.0879 171.629 96.2306 171.629H98.5226C98.6653 171.629 98.7813 171.515 98.7813 171.371V169.08C98.7813 168.936 98.6653 168.821 98.5226 168.821H96.2306ZM98.5226 172.904H96.2306C95.3853 172.904 94.6973 172.216 94.6973 171.371V169.08C94.6973 168.235 95.3853 167.547 96.2306 167.547H98.5226C99.3666 167.547 100.055 168.235 100.055 169.08V171.371C100.055 172.216 99.3666 172.904 98.5226 172.904Z" fill="white"/>
<path d="M334.839 127.484H333.565V121.011H334.839V127.484Z" fill="white"/>
<path d="M337.439 124.884H330.967V123.611H337.439V124.884Z" fill="white"/>
<path d="M364.829 42.5642C364.053 42.5642 363.424 43.1948 363.424 43.9695C363.424 44.7428 364.053 45.3735 364.829 45.3735C365.604 45.3735 366.233 44.7428 366.233 43.9695C366.233 43.1948 365.604 42.5642 364.829 42.5642ZM364.829 46.6469C363.352 46.6469 362.151 45.4455 362.151 43.9695C362.151 42.4922 363.352 41.2908 364.829 41.2908C366.305 41.2908 367.507 42.4922 367.507 43.9695C367.507 45.4455 366.305 46.6469 364.829 46.6469Z" fill="white"/>
<path d="M372.325 53.6175H371.052V47.1442H372.325V53.6175Z" fill="white"/>
<path d="M374.925 51.0188H368.453V49.7441H374.925V51.0188Z" fill="white"/>
</svg>
